/* XPM */
static char *Untitled_1_removebg_preview1708949157[] = {
/* columns rows colors chars-per-pixel */
"60 60 124 2 ",
"   c None",
".  c #020202",
"X  c #0B0B0C",
"o  c #10100F",
"O  c #151515",
"+  c #16181A",
"@  c #1B1B1B",
"#  c #1E2227",
"$  c #232425",
"%  c #27282B",
"&  c #2A2B2D",
"*  c #2C2E31",
"=  c #2F3032",
"-  c #353535",
";  c #36393D",
":  c #3B3C3E",
">  c #3A3E42",
",  c #414244",
"<  c #44474C",
"1  c #45484B",
"2  c #4A4B4C",
"3  c #4B4E51",
"4  c #52555B",
"5  c #55595E",
"6  c #595A5C",
"7  c #595D61",
"8  c #5E6165",
"9  c #616467",
"0  c #636668",
"q  c #6A6C6C",
"w  c #666B72",
"e  c #6A6F75",
"r  c #6E7174",
"t  c #747474",
"y  c #70747B",
"u  c #75787C",
"i  c #7B7C7C",
"p  c #777C80",
"a  c #797D83",
"s  c #7E8286",
"d  c #7A808A",
"f  c #7D8B9C",
"g  c #828384",
"h  c #84878A",
"j  c #85898D",
"k  c #8B8B8B",
"l  c #878C90",
"z  c #8D9093",
"x  c #8D939A",
"c  c #919393",
"v  c #93979A",
"b  c #95999D",
"n  c #9D9D9D",
"m  c #8C9BAD",
"M  c #959CA4",
"N  c #9A9EA2",
"B  c #9EA1A4",
"V  c #9DA4AB",
"C  c #94A3B4",
"Z  c #9DA6B1",
"A  c #A2A2A3",
"S  c #A2A6AD",
"D  c #ABABAC",
"F  c #A3ABB4",
"G  c #A0AEBF",
"H  c #ABB1B6",
"J  c #ACB3BC",
"K  c #B3B4B5",
"L  c #B2B6BC",
"P  c #B7BABB",
"I  c gray72",
"U  c #A3AFC1",
"Y  c #A3B1C1",
"T  c #ABB7C4",
"R  c #AEBAC7",
"E  c #AEBBCB",
"W  c #B6BCC2",
"Q  c #B9BEC3",
"!  c #B2BDCA",
"~  c #BCC1C5",
"^  c #B6C1CE",
"/  c #B9C2CD",
"(  c #B6C3D2",
")  c #BBC5D3",
"_  c #BDC9D6",
"`  c #B9C7DA",
"'  c #BECBD9",
"]  c #C3C4C4",
"[  c #C2C6CB",
"{  c #C6CACC",
"}  c #CCCDCD",
"|  c #C3CBD4",
" . c #C8CFD6",
".. c #C2CDDC",
"X. c #CBD1D6",
"o. c #C4D1DE",
"O. c #CBD4DD",
"+. c #CFD8DF",
"@. c #D1D3D5",
"#. c #D0D7DC",
"$. c #D3D9DE",
"%. c #DDDEDE",
"&. c #C6D3E2",
"*. c #CAD6E6",
"=. c #CCD8E7",
"-. c #CBD7E8",
";. c #CBD8E8",
":. c #D3DBE4",
">. c #D9DEE3",
",. c #D2DDE9",
"<. c #DDE2E5",
"1. c #D6E0EC",
"2. c #DCE4EC",
"3. c #E2E4E6",
"4. c #E2E6E9",
"5. c #E6E9EC",
"6. c #EAECEE",
"7. c #E4EAF1",
"8. c #EBEEF1",
"9. c #EEF1F3",
"0. c #F2F4F5",
"q. c #F4F6F9",
"w. c #F7F8F9",
"e. c #FEFEFE",
/* pixels */
"                                                    ; 2 :                                                               ",
"                                                ; e H { H b 9 $                                                         ",
"                                              q H $.>.+.>.e.8.N 6                                                       ",
"                                            c $.*.=.2.9.5.e.e.q.X.j                                                     ",
"                                          A 6.o.;.-.=.2.4.e.e.e.3.3.j                                                   ",
"                                        c 8.o.&.;.-.;.,.3.e.e.e.0.4.X.6                                                 ",
"                                      8 <.2.' -.;.;.-.;.>.w.e.e.e.| #.L                                                 ",
"                                      M | ..o.-.-.-.-.-.>.e.e.q.$.>.w.9.s                                               ",
"                                    s <.*.E ) ;.=.=.=.=.:.8.<./ 4.e.e.e.[                                               ",
"                                  7 ~ 1.=.:.o.^ ^ ' ..| / +.4.4.8.e.e.e.9.g                                             ",
"                                  b <.=.=.=.=.:.) o.O.*.*.9.e.w.4.e.e.e.e.Q                                             ",
"                                  [ ,.-.;.;.;.;.o.=.=.=.=.7.e.e.4.e.e.e.e.2.r                                           ",
"                                c $.;.;.;.-.-.&.o.-.;.;.=.2.e.e.6.q.e.e.e.q.B                                           ",
"                                L =.;.-.;.-.;.o.o.;.-.-.-.,.e.e.8.9.e.e.e.w.|                                           ",
"                              i | ;.;.-.;.-.;.&.&.-.;.-.;.=.q.e.q.6.e.e.e.e.<.y                                         ",
"                              z o.-.&.;.;.;.;.o.&.-.;.-.-.;.q.e.w.4.e.e.e.e.:.x                                         ",
"                              v _ =.;.;.;.;.;.' *.;.-.;.-.*.8.e.w.4.e.e.e.%.$.W                                         ",
"                              #.^ &.;.;.;.;.;.' *.;.-.-.;.*.7.e.e.4.e.0.X.+.w.O.0                                       ",
"                            k 5.O.^ o.;.-.;.-.' ;.*.*.-.-.-.2.e.e.<.>.O.<.<.e.2.p                                       ",
"                            D 2.;.*.^ ( &.-.;.' ;.;.-.-.-.-.1.9.3.X.<.w.e.4.w.8.x                                       ",
"                            { 1.;.;.o._ / ! ) ) &.*.;.&.o.' o.$.5.w.e.e.e.6.0.q.S                                       ",
"                            >.=.*.;.' &.:.*._ ^ ^ ( ) _ ) o.:.w.e.e.e.e.e.0.6.e.L                                       ",
"                          k 2.-.;.;._ *.-.-.;.,.=.:.;.1.o.*.;.q.e.e.e.e.e.w.4.e.|                                       ",
"                          D 2.-.;.&._ ;.;.-.-.;.;.-.;.;.o.*.;.9.e.e.e.e.e.e.3.e.$.4                                     ",
"                          ] 1.;.;.&.' ;.;.*.;.;.-.-.*.-.&.&.-.8.e.e.e.e.e.e.3.w.4.9                                     ",
"                          #.,.*.;.&.&.;.*.;.;.;.-.-.;.;.&.o.;.7.e.e.e.e.e.e.4.q.8.t                                     ",
"                          <.=.;.;.' &.;.;.;.;.;.-.;.;.;.&.&.;.2.e.e.e.e.e.e.5.0.w.g                                     ",
"                        c 2.;.;.;.' &.;.;.;.=.;.;.;.;.;.*.' -.1.e.e.q.[ D A v b N 6                                     ",
"                        B 2.*.*.;.o.;.;.;.-.;.-.;.;.;.;.*.o.;.1.e.0.J v M l l b N V x a 7 %                             ",
"                        D 1.;.;.;.' *.*.;.;.;.;.;.;.*.*.*.' &.1.w.[ $.q.5.:.0.q.q.2.#.w.4.A :                           ",
"                        K 1.*.;.*._ *.;.;.-.;.;.;.;.;.*.*.o.;.;.>.#.e.e.<.q.e.e.w.>.q.e.6.8.A                           ",
"                        P 1.*.*.*.` ;.;.;.;.-.;.-.*.;.=.*.' ;.=.| 0.e.0.4.e.e.e.9.6.e.e.4.0.6.6                         ",
"                        V ;.;.;.&.' ;.&.-.-.;.;.-.;.-.;.;...*.' $.e.e.4.q.e.e.e.3.q.e.e.4.w.e.n                         ",
"                        ~ ) &.;.o.' ;.-.-.;.;.-.;.;.;.;.=...*._ 0.e.w.4.e.e.e.q.<.e.e.e.4.w.e.}                         ",
"                        #.O.T o.o.' -.;.-.;.-.;.;.;.;.;.-._ o._ w.e.0.6.e.e.e.4.6.e.e.e.<.w.e.6.                        ",
"                        $.o.) ( E ' ;.-.;.;.;.=.;.;.;.*.=.....^ | %.#.<.q.e.w.<.w.e.w.A v w.e.0.i                       ",
"                      t :.o.' ,._ R _ &.;.;.-.;.*.;.-.-.=..._ 5.4.0.6.$.X.| X.! q.e.} $ % @.e.e.h                       ",
"                      i :.o.o.=.:.=._ ! ( ' &.&.&.&.&...' T ! 9.9.e.e.e.0.<.9./ O.w.k X o A e.8.a                       ",
"                      g ,.o.&.-.;.;.;.:.&.' ^ W _ .._ _ ' .. .9.9.e.e.e.6.4.9.4.4. .3 X X h 0.>.B                       ",
"                      k ,...&.-.;.;.;.;.=.=.=.o.-.;.;.;.=.&.| >.6.w.e.e.6.0.6.6.e.$.$ X X 6 $.w.I                       ",
"                      b >...&.-.;.*.-.&.-.-.*.| ;.;.;.*.-..._ ..-.1.5.q.6.w.4.0.e.3.$ X X 2 9.e.]                       ",
"                      A ,.' -.-.;.-.;.;.-.-.*.' ;.*.;.;.-.' ....&.-.-.=.O.7.>.q.e.%.@ X X 2 w.e.}                       ",
"                      N 1.' &.;.;.;.;.;.-.;.;.' ;.*.-.;.-._ o...;.;.;.;...-.O.w.e.@.O X O 2 0.e.}                       ",
"                    O c 1.' -.-.;.;.-.;.-.-.*.' ;.;.-.*.;._ &.' -.;.-.;._ *.O.w.e.] $ @ O , 6.e.Q                       ",
"                      v =.' *.;.;.-.;.-.;.*.&.' ;.;.;.&.;.^ &.' ;.-.;.=.' &.*.e.e.] 2 @ O : %.$.B                       ",
"                      h o.' &.;.;.;.;.;.;.;.;.' ;.*.;.;.;.! ^ ! _ ' o.o.) &.#.e.e.K - @ @ : [ 5.s o +                   ",
"                  1.,.M _ ' *.;.;.-.-.;.-.;.*.' ;.*.;.;.*.^ =.=.O.) _ ( ^ ^ T ..X.j $ @ @ $ %.n                         ",
"                ,.-.;./ L ..&.;.-.;.;.;.-.;.*.` ;.*.;.;.*.) *.;.;.o.;.;.,.O.O.8.4.i . . o $ K q   :.=.,.;.=.=.;.,.:.,.=.",
"              =.;.` E &.B ^ ;.-.;.;.;.;.-.;.*.| ;.;.;.*.&.' ;.-.;.' *.;.;.&.1.e.e.k . . O O 0 ^ =.;.;.;.-.;.;.;.;.=.:.=.",
"    =.=.,.,.;.=.;.G   ' W w R =.;.-.;.-.-.*.*.' ;.;.-.;.;.' ;.;.*.' *.*.;.&.<.e.e.g . . o + M ;.;.=.=.=.=.=.=.          ",
"      =.=.-.=.-.-.E   ( ,.  , M *.;.-.;.;.*.*...-.;.-.-.*.o.;.;.*.' ;.;.-.*.2.e.e.i . . ; V -.-.=.                      ",
"        :.:.;.-.-.E Y ` -.1.  u x -.;.-.-.;.*...-.;.-.-.*.o.;.;.O.o.;.;.-.&.4.e.e.t . > ! ,.-.-.=.=.=.:.                ",
"            :.;.;.` ^ &.-.;.-.:.s V ;.-.=.-.*...;.;.;.-.;.&.;.;.-.o.-.-.;.o.4.e.e.t < J ) o.-.-.*.;.;.*.=.=.=.:.:.      ",
"          =.;.-.;.;.;.;.;.;.-.;.o.7 ^ ;.;.;.*...-.;.=.=.=.*.( Z F ' =.-.;.o.4.e.} 6 4 3 > y *.-.;.;.;.;.=.;.=.=.=.      ",
"  =.=.=.;.;.;.;.;.&.' &.;.;.-.&.;.S 8 ! =.;.=.| _ ^ ) ( J d 1 = # y ..,.=.*.>.b -             :.*.;.;.;.;.=.            ",
"  =.*.;.;.;.;.;.( C m m E ^ C C E =.  > r d y 5 > ; ; ; $ * [       7 Z / H 7 +     1.=.=.,.,.=.;.;.;.=.                ",
"    =.=.;.;.&.T           f         ,.                    -.E ' =.    $ > %     ,.=.-.-.=.;.;.=.*.=.                    ",
"                              :.=.:.=.=.;.              ;...  E =.=.        ,.=.-.-.=.;.=.=.                            ",
"                =.;.-.;.=.=.=.=.;.;.=.-.;.*.;.;.;.=.=.;.;...G ^ =.-.-.=.=.=.=.-.=.=.                                    ",
"              :.=.-.-.-.;.;.-.-.;.;.-.-.*.*.;.;.-.;.-.;.;.&.^ ' -.=.-.=.-.-.-.=.                                        "
};
