/* XPM */
static char *Untitled_2_removebg_preview1708949450[] = {
/* columns rows colors chars-per-pixel */
"60 60 144 2 ",
"   c None",
".  c #090C0D",
"X  c #0E1010",
"o  c #101112",
"O  c #17191A",
"+  c #1E2226",
"@  c #212427",
"#  c #27292C",
"$  c #2F3133",
"%  c #303133",
"&  c #36393D",
"*  c #3D3E3E",
"=  c #363B42",
"-  c #3A3D42",
";  c #3C4044",
":  c #404246",
">  c #494A4C",
",  c #474A50",
"<  c #4C4E52",
"1  c #515357",
"2  c #51565D",
"3  c #54585D",
"4  c #595B5C",
"5  c #575C61",
"6  c #5A5D62",
"7  c #5E6166",
"8  c #5E6269",
"9  c #5F6973",
"0  c #626467",
"q  c #616468",
"w  c #66686A",
"e  c #6A6C6D",
"r  c #676C73",
"t  c #6C6F75",
"y  c #686F78",
"u  c #6F7375",
"i  c #6C727A",
"p  c #747575",
"a  c #71767D",
"s  c #777A7C",
"d  c #7A7A7B",
"f  c #757A82",
"g  c #7A7D82",
"h  c #727C89",
"j  c #7E8186",
"k  c #7B818A",
"l  c #778290",
"z  c #7D8795",
"x  c #7C8B9C",
"c  c #838485",
"v  c #83868A",
"b  c #878889",
"n  c #8B8C8D",
"m  c #848B92",
"M  c #8B9095",
"N  c #87909D",
"B  c #8D949C",
"V  c #929292",
"C  c #93969A",
"Z  c #95999D",
"A  c #9D9D9D",
"S  c #9FA09F",
"D  c #8A94A3",
"F  c #8F99A7",
"G  c #8D9BAB",
"H  c #959CA3",
"J  c #9A9EA3",
"K  c #909CAE",
"L  c #909FB1",
"P  c #9DA1A4",
"I  c #96A0AE",
"U  c #9DA4AC",
"Y  c #95A3B4",
"T  c #9CA5B1",
"R  c #97A5B9",
"E  c #98A6B9",
"W  c #9BA9BC",
"Q  c #A3A3A4",
"!  c #A2A7AB",
"~  c #A7ABAE",
"^  c #ABABAC",
"/  c #A1A9B2",
"(  c #ABAEB1",
")  c #A3AEBC",
"_  c #ACB0B4",
"`  c #ACB3BB",
"'  c #B3B5B7",
"]  c #B2B6BB",
"[  c #B6B9BC",
"{  c gray72",
"}  c #A1AFC1",
"|  c #A4B2C5",
" . c #ACB7C4",
".. c #ADBAC7",
"X. c #A7B6CB",
"o. c #A8B7CD",
"O. c #ADBBCC",
"+. c #B6BBC3",
"@. c #B9BEC3",
"#. c #B2BDCA",
"$. c #ADBBD2",
"%. c #BDC1C3",
"&. c #B6C1CE",
"*. c #BAC3CD",
"=. c #B6C3D2",
"-. c #BAC5D2",
";. c #BDC9D6",
":. c #BECAD9",
">. c #C3C3C4",
",. c #C2C6CC",
"<. c #C6C9CC",
"1. c #CBCCCC",
"2. c #C2CBD4",
"3. c #C8CFD6",
"4. c #C2CEDC",
"5. c #CBD1D6",
"6. c #C5D1DE",
"7. c #CBD4DC",
"8. c #D2D3D5",
"9. c #D1D6DC",
"0. c #D4D9DE",
"q. c #DDDEDD",
"w. c #C6D3E2",
"e. c #CAD6E5",
"r. c #CCD8E7",
"t. c #CBD7E8",
"y. c #CBD8E8",
"u. c #D3DBE4",
"i. c #D9DEE3",
"p. c #D2DDE9",
"a. c #DDE1E5",
"s. c #D6E0EC",
"d. c #DCE3EC",
"f. c #E2E4E6",
"g. c #E2E6E9",
"h. c #E6E9EC",
"j. c #EAECEE",
"k. c #E4EAF1",
"l. c #EBEEF1",
"z. c #EEF1F3",
"x. c #F2F4F5",
"c. c #F4F6F9",
"v. c #F7F8F9",
"b. c #FEFEFE",
/* pixels */
"                                                    & > *                                                               ",
"                                                & r _ <.` Z 0 @                                                         ",
"                                              e _ 7.i.7.i.b.j.P 4                                                       ",
"                                            V 0.e.p.d.x.h.b.b.c.5.b                                                     ",
"                                          P l.6.t.t.t.h.g.b.b.b.f.f.b                                                   ",
"                                        V z.6.w.t.t.t.y.a.b.b.b.c.g.5.3                                                 ",
"                                      7 f.d.:.e.t.t.e.t.i.b.b.b.v.3.0.]                                                 ",
"                                      J 2.:.w.e.t.t.e.e.i.b.b.c.0.i.v.z.j                                               ",
"                                    j a.7.&.;.e.y.r.t.t.u.z.a.-.h.b.b.b.,.                                              ",
"                                  4 *.s.r.r.6.*.=.:.6.:.&.7.g.f.l.b.b.b.z.j                                             ",
"                                  Z s.r.e.r.y.p.-.6.7.7.e.z.b.v.g.b.b.b.b.[                                             ",
"                                  ,.s.e.r.r.r.r.6.y.y.r.r.h.b.b.g.b.b.b.b.g.u                                           ",
"                                V 0.r.e.t.y.y.w.6.y.y.t.r.d.b.b.j.c.b.b.b.c.P                                           ",
"                                [ r.y.t.t.t.y.w.w.y.y.t.e.s.b.b.z.l.b.b.b.b.2.                                          ",
"                              d 2.e.y.y.y.t.y.6.w.t.y.t.t.y.c.b.c.h.b.b.b.b.a.i                                         ",
"                              M 6.e.y.y.y.y.t.6.w.t.y.r.t.t.z.b.v.h.b.b.b.b.u.M                                         ",
"                              Z :.r.r.t.y.y.e.:.r.y.y.y.y.y.k.b.b.f.b.b.b.i.u.+.                                        ",
"                              5.&.w.y.y.y.y.y.:.e.y.y.y.e.y.k.b.b.f.b.x.5.7.v.5.0                                       ",
"                            n h.6.&.:.y.y.y.y.:.e.y.y.e.y.y.d.b.b.a.i.7.a.f.b.d.g                                       ",
"                            ( d.r.r.&.;.w.y.r.:.y.y.y.y.y.t.s.z.f.5.a.v.b.g.v.l.B                                       ",
"                            <.s.r.y.:.:.-.&.-.-.w.r.w.e.:.:.6.i.h.v.b.b.b.j.z.c.!                                       ",
"                            q.r.r.r.:.w.s.6.-.&.&.&.;.;.-.w.u.v.b.b.b.b.b.x.j.b.]                                       ",
"                          V d.t.e.y.:.e.e.y.y.p.r.u.y.p.6.e.r.x.b.b.b.b.b.v.h.b.2.                                      ",
"                          ~ d.t.y.e.;.e.e.e.y.y.t.t.t.r.w.w.y.z.b.b.b.b.b.b.g.b.0.1                                     ",
"                          >.d.t.y.w.:.t.y.y.t.t.t.r.e.y.w.e.t.k.b.b.b.b.b.b.f.v.g.0                                     ",
"                          8.y.r.y.w.w.t.y.y.e.y.y.y.y.y.w.:.y.k.b.b.b.b.b.b.f.c.l.u                                     ",
"                          a.r.r.y.:.w.t.y.y.y.y.y.y.y.y.e.w.y.d.b.b.b.b.b.b.h.x.v.j                                     ",
"                        V d.r.t.y.w.w.y.y.e.y.y.y.y.y.y.w.:.y.d.b.b.x.>.^ Q C Z P 3                                     ",
"                        P d.t.t.y.:.e.y.y.y.y.y.y.y.y.y.w.6.e.s.b.z.` Z J m m Z J ! M g 7 #                             ",
"                        ~ s.w.y.e.:.y.y.y.y.y.e.y.y.y.y.r.:.e.s.v.2.0.v.j.u.z.v.c.g.e.v.g.J *                           ",
"                        ' d.y.y.w.:.e.y.y.y.y.y.y.y.y.y.r.:.e.p.i.8.b.b.a.c.b.b.b.i.c.b.h.x.Q                           ",
"                        [ s.y.y.w.;.y.y.y.y.y.y.e.y.y.y.e.:.y.e.2.x.b.x.g.b.b.b.j.j.b.b.h.x.h.4                         ",
"                        U y.r.t.w.;.y.e.y.y.y.t.y.y.t.t.r.6.r.:.a.b.b.a.c.b.b.b.a.v.b.b.h.c.b.A                         ",
"                        %.=.e.r.6.;.y.y.y.y.y.y.y.y.t.t.r.:.r.-.z.b.b.f.b.b.b.c.f.b.b.b.g.v.b.1.                        ",
"                        7.5.| 6.6.:.e.r.y.y.y.y.y.t.t.t.r.;.6.-.v.b.z.j.b.b.b.g.j.b.b.b.f.v.b.h.                        ",
"                        0.w.-.-.O.:.y.r.y.y.e.t.y.t.t.t.r.6.:.&.2.a.9.a.c.v.b.q.v.b.v.Q C v.b.x.d                       ",
"                      p u.w.4.p.2...:.w.y.y.t.t.e.y.r.y.r.:.-.h.f.x.j.0.3.2.5.&.c.b.3.y y 8.b.b.b                       ",
"                      d u.4.4.y.r.r.;.&.=.:.6.w.w.w.w.:.;...&.z.z.b.b.b.x.a.z.*.7.v.Q Y R @.b.l.g                       ",
"                      c p.4.w.r.y.e.p.u.w.;.&...;.:.;.-.:.6.2.z.z.b.b.b.j.h.z.g.g.3.m | | +.z.i.P                       ",
"                      V p.4.e.r.r.r.t.r.y.y.r.6.y.y.p.p.y.w.;.a.j.b.b.b.j.z.h.j.b.8.h | W B 8.v.{                       ",
"                      C p.4.e.r.t.t.t.t.t.t.e.:.y.e.y.t.t.:.;.6.e.s.k.v.j.v.g.x.b.f.k G Y m z.b.>.                      ",
"                      Q p.4.e.r.t.t.t.t.y.t.e.:.y.y.r.e.r.:.6.4.e.r.t.r.7.h.i.c.b.q.N R X.U c.b.1.                      ",
"                      J p.:.w.t.e.t.y.y.y.y.y.:.e.y.t.t.t.:.6.:.e.t.t.r.4.e.6.v.b.8.D W X.T z.b.1.                      ",
"                    o C s.:.e.t.y.y.y.y.y.y.y.:.y.y.t.t.r.;.w.4.r.t.t.r.:.e.5.b.b.1.F W X.U j.b.%.                      ",
"                      Z r.:.e.r.y.y.y.e.y.y.e.:.y.e.y.t.r.=.w.:.t.y.y.t.:.e.7.v.b.%.L W o.K 0.i.P                       ",
"                      v 7.;.e.t.y.e.y.y.y.e.e.;.y.y.y.e.r...&.O.:.:.:.w.-.w.u.b.b.( l G R z <.h.j o O                   ",
"                  s.p.H -.:.w.y.y.y.y.y.y.y.e.;.t.t.t.y.e.=.r.r.7.-.;.-.&.&. .2.6.v h } } F f.A                         ",
"                p.r.y.*. .:.e.y.y.e.y.y.y.y.e.:.t.t.t.t.r.=.r.y.r.6.y.y.p.e.6.l.h.d 9 $.o.T ' d   r.y.u.r.r.r.r.p.p.p.r.",
"      g ,     p.y.:.O.r.P &.r.r.r.t.t.t.t.y.e.:.t.r.t.y.r.;.y.y.r.:.e.y.y.w.u.b.b.b = o.$.F t *.r.r.r.r.r.e.e.r.r.r.p.r.",
"    r.r.p.p.r.e.y.W   :.%.r  .r.t.r.t.t.t.y.r.:.y.t.t.t.e.:.e.y.r.4.r.t.y.w.a.b.b.c . y z 2 D y.r.r.r.r.r.p.p.          ",
"      r.r.r.t.t.e.o.  =.p.  ; H e.r.r.t.r.e.r.:.t.t.t.t.e.6.r.y.e.:.r.t.r.w.g.b.b.C t h m / r.y.r.                      ",
"        u.r.r.r.y.O.} :.r.s.  g B r.r.e.e.r.r.6.t.t.t.t.r.6.t.y.w.6.r.r.r.w.g.b.b.( 4.p.p.y.y.y.r.r.r.r.                ",
"            p.r.y.:.&.w.t.t.r.r.g U y.t.t.t.r.:.r.t.r.t.r.6.r.p.e.4.t.t.t.w.g.b.b.^ 4.4.;.6.t.e.r.t.t.r.r.r.p.r.p.u.    ",
"          p.r.e.e.y.t.t.r.t.t.t.6.6 &.y.y.e.r.6.t.r.r.y.r.e.=.T / 4.r.e.r.w.g.b.1.e q , - a e.e.t.t.t.e.r.r.r.r.p.      ",
"  r.  r.r.r.r.r.r.w.:.w.t.y.e.e.r.! 7 #.p.y.r.;.;.&.-.-.` k < % @ f 4.p.p.6.u.A %             p.r.t.r.y.r.r.            ",
"  r.r.t.r.r.t.e.&.Y G L o.&.R Y O.r.  - i k i 3 ; & & & @ % ,.      6 U -.) 6 O     p.r.p.p.p.r.t.r.r.r.                ",
"    r.r.r.r.e. .          x         s.                    e.O.:.r.    @ - #     p.r.r.r.r.t.r.r.r.r.                    ",
"                              u.r.r.r.r.y.              y.w.  O.r.r.        p.r.r.t.r.r.r.r.                            ",
"                r.t.t.r.r.r.r.r.r.r.r.r.y.y.e.t.r.y.y.r.y.:.| O.t.t.r.r.r.r.r.t.r.r.                                    ",
"              p.r.t.t.t.r.t.t.t.t.t.t.r.y.y.y.t.y.t.t.y.e.e.&.:.t.r.t.t.t.t.t.r.                                        "
};
