/* XPM */
static char *back__2_1708950744[] = {
/* columns rows colors chars-per-pixel */
"60 60 185 2 ",
"   c None",
".  c #0F181F",
"X  c #151414",
"o  c #1A1514",
"O  c #1C1816",
"+  c #16161A",
"@  c #1B161B",
"#  c #15191D",
"$  c #1D1B1C",
"%  c #241B14",
"&  c #291B15",
"*  c #221D1D",
"=  c #301F14",
"-  c #24211E",
";  c #2B231E",
":  c #2F2A1B",
">  c #332417",
",  c #33231A",
"<  c #3B2D1B",
"1  c #3F301B",
"2  c #0E1B23",
"3  c #141C23",
"4  c #1B1E22",
"5  c #111F28",
"6  c #241C23",
"7  c #291D26",
"8  c #271F2A",
"9  c #0E212C",
"0  c #152025",
"q  c #1A2123",
"w  c #15222C",
"e  c #1D2528",
"r  c #0F2330",
"t  c #182633",
"y  c #192833",
"u  c #232323",
"i  c #2C2723",
"p  c #2D2923",
"a  c #242529",
"s  c #2B232A",
"d  c #2C2C2C",
"f  c #262A2E",
"g  c #322D2B",
"h  c #332828",
"j  c #3E3323",
"k  c #35312D",
"l  c #38312A",
"z  c #2C2E32",
"x  c #322430",
"c  c #322D33",
"v  c #3B2837",
"b  c #353333",
"n  c #3B3533",
"m  c #3C3935",
"M  c #3B363B",
"N  c #3C3B3D",
"B  c #37373A",
"V  c #42331C",
"C  c #4B3416",
"Z  c #563F1F",
"A  c #463523",
"S  c #543F25",
"D  c #412D3E",
"F  c #433939",
"G  c #59482B",
"H  c #5B4D3C",
"J  c #47423C",
"K  c #674823",
"L  c #6D552F",
"P  c #765026",
"I  c #604E3B",
"U  c #685638",
"Y  c #7F612F",
"T  c #766039",
"R  c #3F3D41",
"E  c #4A3647",
"W  c #51374C",
"Q  c #543C53",
"!  c #5D3C57",
"~  c #5C3E59",
"^  c #444244",
"/  c #4B4544",
"(  c #474648",
")  c #4C4A4B",
"_  c #514543",
"`  c #534A44",
"'  c #504E4D",
"]  c #5A5348",
"[  c #4E4E51",
"{  c #5D405C",
"}  c #554B56",
"|  c #535354",
" . c #585659",
".. c #5B5B5B",
"X. c #565758",
"o. c #62415E",
"O. c #605D5F",
"+. c #75654F",
"@. c #5F5D61",
"#. c #625F61",
"$. c #5E6061",
"%. c #6B6A6C",
"&. c #6A6665",
"*. c #747068",
"=. c #726F73",
"-. c #747376",
";. c #797779",
":. c #7B7A7D",
">. c #787478",
",. c #91703C",
"<. c #9A7438",
"1. c #886932",
"2. c #9B7641",
"3. c #907D5E",
"4. c #877560",
"5. c #857E79",
"6. c #AD812C",
"7. c #B0832E",
"8. c #998567",
"9. c #87807D",
"0. c #A79271",
"q. c #B39A79",
"w. c #7B7D81",
"e. c #837984",
"r. c #7F8183",
"t. c #828284",
"y. c #86858A",
"u. c #8B8B8D",
"i. c #8A8485",
"p. c #96928D",
"a. c #8D8F91",
"s. c #918D95",
"d. c #8D9194",
"f. c #979696",
"g. c #A9A49B",
"h. c #9D9DA4",
"j. c #A19EA2",
"k. c #9FA1A6",
"l. c #A3A3A5",
"z. c #A5A4AA",
"x. c #A6A9AD",
"c. c #AAA9AE",
"v. c #A8A6AA",
"b. c #ADACB1",
"n. c #B0AEB4",
"m. c #B2B2B5",
"M. c #B6B5BB",
"N. c #B8B6BD",
"B. c #B9B9BE",
"V. c #BAB8B6",
"C. c #CDB38B",
"Z. c #D8BF91",
"A. c #F2D29E",
"S. c #F3D3A1",
"D. c #BDBCC3",
"F. c #B9B7C1",
"G. c #C0BEC5",
"H. c #C0C2C4",
"J. c #C4C3CA",
"K. c #CBCACB",
"L. c #D4CEC3",
"P. c #C7CAD1",
"I. c #CCCCD4",
"U. c #CED0D3",
"Y. c #CED1D8",
"T. c #D3D3DB",
"R. c #D7D8DF",
"E. c #D8D1C5",
"W. c #E4DACF",
"Q. c #DBDCE4",
"!. c #DEDFE9",
"~. c #D2D6E0",
"^. c #DFE3ED",
"/. c #DAE0E3",
"(. c #E2E3EB",
"). c #E6E9EF",
"_. c #EBEBED",
"`. c #E4E7F0",
"'. c #E6E9F2",
"]. c #EAECF3",
"[. c #E8E7F0",
"{. c #F0F0F4",
"}. c #F4F4F9",
"|. c #FDFDFD",
" X c #F7F8F9",
/* pixels */
"                                                                                                                        ",
"                                                                                                                        ",
"                                                                                                                        ",
"                                                                                                                        ",
"                                                                                                                        ",
"                                                                                                                        ",
"                                                                                                                        ",
"                                                                                                                        ",
"                                                                                                                        ",
"                                                                                                                        ",
"                                                              2 2 9                                                     ",
"                                                        3 3 c ( ( B e 2 r                                               ",
"                                                    w # [ z.I.Q./.~.N.%.u 2                                             ",
"                                                    # >.Q.].'.'.'.'.'.'.k.d # q - : A A e                               ",
"                                                3 X X./.'.'.'.'.'.'.'.'.'.u.o G ,.<.<.,.p                               ",
"                                            5 + + # z.].'.'.'.'.'.'.'.'.].Y.d < G 1 : - w                               ",
"                                      w $ - > V < * h.Q.^.).'.'.'.'.'.(.!.J.M B u.%.- 5                                 ",
"                                      i T ,.2.2.L O w.D.G.P.Y.T.R.Y.I.J.D.j.a ;.|. Xl.d 2                               ",
"                                    w % G G A j l * ^ b.N.M.M.M.M.m.M.M.M.%.$ b.{. X|.V.B 2                             ",
"                                    4 | %.t.h.N.c.-.$ X.x.N.N.M.N.F.F.M.;.6  .Q.'.).}.|.V.f 9                           ",
"                                  2 .._.}.].].].I.m.%.6 N ;.h.c.b.j.y.[ @ ( M.'.'.'.'.]. Xp.$                           ",
"                                r z K. X'.'.).).^.D.m.y.N u u c b s 4 c %.b.Q.'.'.'.'.).{.{. ..                         ",
"                                3 e. X].'.'.'.'.).Q.J.N.b.s.=.@.@.&.y.z.D.~.'.'.'.'.'.'.). XB.e                         ",
"                                d I.{.).'.).'.'.'.).(.T.J.D.D.D.D.D.J.T.^.].'.'.'.'.).'.'.].{.X.5                       ",
"                              2 O.].'.'.'.'.'.'.'.'.'.'.'.^.!.!.!.!.`.'.'.'.'.'.'.'.'.'.'.'. Xf.#                       ",
"                              # p.{.'.'.'.'.'.'.'.).).'.'.'.'.).'.'.'.'.'.'.'.'.].'.'.'.'.'.].K.a                       ",
"                              q b.].'.'.'.].'.'.'.'.).'.'.'.'.'.'.'.'.'.'.'.`.'.'.'.'.'.'.'.'.Q.R w                     ",
"                              u H.].'.'.'.'.'.'.'.'.'.'.'.'.'.`.'.'.'.'.'.'.'.'.'.'.'.'.'.'.).(.) 2                     ",
"                              a H.].'.'.'.'.'.'.'.'.'.'.'.'.'.'.'.'.'.'.'.'.'.'.'.'.'.'.'.'.'.(.) 2                     ",
"                              4 b.].'.'.'.'.'.'.'.'.'.'.'.'.'.'.'.'.'.'.'.'.'.'.'.'.'.'.'.'.].~.N 5                     ",
"                              3 f.].'.'.'.'.'.'.'.'.'.'.'.'.'.'.'.'.'.'.'.'.'.'.'.'.'.'.'.'.].P.f                       ",
"                              2 %.!.'.'.'.'.'.'.'.'.'.'.`.'.`.'.'.'.'.'.'.'.'.'.'.'.'.'.'.'.'.x.q                       ",
"                              3 F M.P.Q.`.'.'.'.'.'.'.).).'.'.'.'.'.'.[.).'.'.'.'.'.].'.`.~.I.%.+                       ",
"                                u d.F.F.J.Y.!.(.'.'.'.'.'.'.'.'.'.'.'.'.'.'.'.'.(.(.~.I.H.F.b.N 0                       ",
"                                # #.N.M.M.M.F.D.P.Y.R.Q.!.(.(.(.(.(.(.!.Q.Q.T.I.J.D.F.M.N.N.a.4                         ",
"                                0 d k.N.M.M.N.M.M.m.M.N.F.D.D.D.G.D.G.B.N.N.N.M.N.N.N.M.N.m.[ 2                         ",
"                                  + &.M.M.M.N.N.M.M.M.M.M.M.M.M.M.M.m.N.M.M.M.M.M.M.M.N.N.y.4                           ",
"                                  w 4 y.N.c.z.N.M.M.M.M.M.M.M.N.M.M.N.M.M.N.M.M.N.M.N.F.l.N 3                           ",
"                                    3 c t./ n :.m.N.N.M.M.M.M.N.N.N.M.N.M.M.M.M.M.M.B.x.) #                             ",
"                                      5 # b &.B @.c.b.x.M.N.M.M.N.M.M.M.M.N.N.N.N.c.e.N 3                               ",
"                                        w a &.5.J / ) l :.M.B.N.N.B.B.N.N.m.c.s.&.N 4 3                                 ",
"                                            e ' 9.k C 1.j ..y.s.s.u.w.>.@.( g $ + 5                                     ",
"                                              4 f : 6.6.> $ @ $ * * - - X X @ @ t                                       ",
"                                            y + % 1.<.1 k / p o X m i.} o o h v @                                       ",
"                                            4 8 > L V - J ` l - ^ u ) u 8 6 7 Q v 3                                     ",
"                                          3 8 Q s o $ l n F - ) k.u o O M v @ W Q 6 w                                   ",
"                                          f s.} O X O u k k X :.:.o b $ * c + E e.e.a                                   ",
"                                        0 a u.N , - X O - $ f t.N X $ d M $ X E J.s.$ w                                 ",
"                                        $ l - o % % J g.9.$ ^ $.+ $ X.x.r.# X q b ; l $                                 ",
"                                      3 I q.+.O F p.W.E.*.O 6 $ F -.r.| * - - o i 4.q.I 3                               ",
"                                      + 8.A.3.- g.E.5.h = K C O ..| q X d ` / p i 0.A.8.$                               ",
"                                      3 H Z.+.$ | h o X A P K % X X u O g F ` ` h H C.H 3                               ",
"                                        # l p O * x x x 7 6 6 6 6 * $ + g n F J / * : 4                                 ",
"                                          y + $ E o.o.! ~ ~ ~ ~ ! W v x 6 g n F / i 3                                   ",
"                                            0 @ x D E W ! ! ~ { ~ ~ ~ W x $ ; p h u y                                   ",
"                                              w 3 + @ @ 6 6 7 s 7 7 7 * $ X X @ w y                                     ",
"                                                  + O o o o X 3 4 # X O % o +                                           ",
"                                                  $ % : > % +     $ * = , & +                                           ",
"                                                    X % & o w       + & % @ 3                                           ",
"                                                      3 5 w           3 4 w                                             "
};
