/* XPM */
static char *_1db18c6e19a4d5fc19fcc396d7d36a1BKfmpoAg9ZMxwBvM[] = {
/* columns rows colors chars-per-pixel */
"60 60 181 2 ",
"   c None",
".  c #2C1104",
"X  c #371404",
"o  c #4D1B04",
"O  c #531E03",
"+  c #531D04",
"@  c #571F04",
"#  c #502106",
"$  c #592003",
"%  c #592104",
"&  c #5B2004",
"*  c #5A2005",
"=  c #582007",
"-  c #5B2106",
";  c #582306",
":  c #5F2406",
">  c #642304",
",  c #602604",
"<  c #662404",
"1  c #652B03",
"2  c #662907",
"3  c #632D06",
"4  c #642D07",
"5  c #6C2804",
"6  c #6D2C04",
"7  c #6F2D04",
"8  c #732B04",
"9  c #742F04",
"0  c #7A2B03",
"q  c #7A2C03",
"w  c #782E04",
"e  c #6B3408",
"r  c #6A3508",
"t  c #773105",
"y  c #793004",
"u  c #783206",
"i  c #7C3004",
"p  c #763806",
"a  c #7A3906",
"s  c #743E08",
"d  c #803404",
"f  c #843705",
"g  c #853606",
"h  c #8B3203",
"j  c #8E3203",
"k  c #8C3503",
"l  c #863805",
"z  c #843906",
"x  c #813C06",
"c  c #883A04",
"v  c #883B05",
"b  c #8A3A05",
"n  c #8C3A05",
"m  c #8C3B05",
"M  c #8E3A05",
"N  c #8E3B06",
"B  c #8D3E05",
"V  c #8D3F05",
"C  c #8F3F05",
"Z  c #953603",
"A  c #903605",
"S  c #933905",
"D  c #913A05",
"F  c #903F05",
"G  c #923F05",
"H  c #9C3803",
"J  c #9F3C03",
"K  c #9A3A05",
"L  c #9A3E04",
"P  c #9E3D04",
"I  c #9E3F04",
"U  c #A13804",
"Y  c #A33C04",
"T  c #A03E04",
"R  c #8D4A09",
"E  c #934305",
"W  c #904006",
"Q  c #954205",
"!  c #974006",
"~  c #934605",
"^  c #994105",
"/  c #9E4305",
"(  c #9F4305",
")  c #9A4605",
"_  c #9A4406",
"`  c #9F4505",
"'  c #9E4605",
"]  c #9F4606",
"[  c #904807",
"{  c #9E4806",
"}  c #9E4D07",
"|  c #A04505",
" . c #A14506",
".. c #AE4204",
"X. c #A24805",
"o. c #A24806",
"O. c #A34906",
"+. c #A14B06",
"@. c #A44B05",
"#. c #A14F06",
"$. c #A44C05",
"%. c #A74C06",
"&. c #A64E06",
"*. c #A84E05",
"=. c #A84D06",
"-. c #AD4D05",
";. c #B54F05",
":. c #AE5005",
">. c #AB5707",
",. c #AE5607",
"<. c #B05005",
"1. c #B05206",
"2. c #B25306",
"3. c #B45006",
"4. c #B15406",
"5. c #B25507",
"6. c #B35606",
"7. c #B65506",
"8. c #BB5005",
"9. c #BB5305",
"0. c #BF5305",
"q. c #B95606",
"w. c #BA5606",
"e. c #BA5706",
"r. c #BE5505",
"t. c #BE5605",
"y. c #BC5706",
"u. c #B35807",
"i. c #BB5A05",
"p. c #BB5906",
"a. c #BA5B07",
"s. c #BC5A06",
"d. c #BF5B06",
"f. c #BE5B07",
"g. c #BB5C06",
"h. c #BF5E06",
"j. c #BF5F07",
"k. c #B26008",
"l. c #B66408",
"z. c #BE6508",
"x. c #BD6909",
"c. c #C05D06",
"v. c #C05E06",
"b. c #C05F06",
"n. c #C15F06",
"m. c #C75C05",
"M. c #C85E05",
"N. c #C85E06",
"B. c #C16007",
"V. c #C36006",
"C. c #C76006",
"Z. c #C76206",
"A. c #C66207",
"S. c #C46406",
"D. c #C86005",
"F. c #C96006",
"G. c #C86206",
"H. c #C96306",
"J. c #CB6306",
"K. c #CA6506",
"L. c #CB6506",
"P. c #CB6606",
"I. c #CD6506",
"U. c #CD6606",
"Y. c #CD6706",
"T. c #CE6706",
"R. c #CE6707",
"E. c #CF6A06",
"W. c #CF6A07",
"Q. c #D06906",
"!. c #D06A06",
"~. c #D06B06",
"^. c #D16B06",
"/. c #D06A07",
"(. c #D06B07",
"). c #D16B07",
"_. c #D26B06",
"`. c #D26B07",
"'. c #D36C06",
"]. c #D77007",
"[. c #D77708",
/* pixels */
"                                                                                                                        ",
"                                                                                                                        ",
"                                                                                                                        ",
"                                                                                                                        ",
"                                                                                                                        ",
"                                                                                                                        ",
"                                                                                                                        ",
"                                                                                                                        ",
"                                                                                                                        ",
"                                                                                                                        ",
"                                                                                                                        ",
"                                                                                                                        ",
"                                                                                                                        ",
"                                                                                                                        ",
"                                                                                                                        ",
"                                                                                                                        ",
"                                                                                                                        ",
"                                                                                                                        ",
"                                                                                                                        ",
"                                                                                                                        ",
"                                                                                                                        ",
"                                                    4 [ #.g z p                                                         ",
"                                                s l.j.5.Z.^ U.K.u.a                                                     ",
"                                              # x ~ K.{ z , b W B g %                                                   ",
"                                            r >.-.$ 7 d < 8 5 X.s.j.%.3                                                 ",
"                                            x.].<.O 1 G.X.` =.y w ) Z.V.r                                               ",
"                                          R [.:.b 7 W '.c.M U.U.w./ D w.}                                               ",
"                                          k.S.B a.9 a.^.U.M s.^.^.^.r.K X.                                              ",
"                                          z.) g.%.G ^.E.^.` %.^.E.^.^.8.A 2                                             ",
"                                          ,.X.K.M c.^.E.^.5.G ^.E.E.^.U.P %                                             ",
"                                          ! c.<.| ^.E.E.^.V.z K.^.E.E.^.3.%                                             ",
"                                          D U./ w.^.E.E.^.U.b c.^.E.E.^.r.:                                             ",
"                                          M G.L Z.^.E.E.E.^.! 5.^.E.E.^.<.                                              ",
"                                          y s.P G.^.E.E.E.^.@.=.^.E.E.^.B                                               ",
"                                            ` J G.^.E.E.E.^.<.X.^.E.^.a.%                                               ",
"                                            % j 0.^.E.E.E.^.7.| ^.^.Z.t                                                 ",
"                                              o Y m.E.^.^.^.;.Y N.r.i                                                   ",
"                                                + Z 8.G.U.N...U H >                                                     ",
"                                                  . @ q k h 0 % X                                                       ",
"                                                                                                                        ",
"                                                                                                                        ",
"                                                                                                                        ",
"                                                                                                                        ",
"                                                                                                                        ",
"                                                                                                                        ",
"                                                                                                                        ",
"                                                                                                                        ",
"                                                                                                                        ",
"                                                                                                                        ",
"                                                                                                                        ",
"                                                                                                                        ",
"                                                                                                                        ",
"                                                                                                                        ",
"                                                                                                                        ",
"                                                                                                                        ",
"                                                                                                                        ",
"                                                                                                                        ",
"                                                                                                                        ",
"                                                                                                                        ",
"                                                                                                                        "
};
