/* XPM */
static char *_9c4f6f19c994fd38fe77a7530db3bc94GIE4YEXN9Iv52e1[] = {
/* columns rows colors chars-per-pixel */
"60 60 147 2 ",
"   c None",
".  c #8D4100",
"X  c #944401",
"o  c #994601",
"O  c #9D4902",
"+  c #9F5311",
"@  c #A34C03",
"#  c #AA4F03",
"$  c #AC5104",
"%  c #AC550B",
"&  c #B35404",
"*  c #B95603",
"=  c #BE5904",
"-  c #B45608",
";  c #B6580A",
":  c #BC5C0B",
">  c #A45715",
",  c #A45815",
"<  c #A95915",
"1  c #B45C11",
"2  c #B85D11",
"3  c #B05F19",
"4  c #BB6216",
"5  c #C45B03",
"6  c #CB5E03",
"7  c #C15E0B",
"8  c #C85F08",
"9  c #CE6004",
"0  c #C4610E",
"q  c #CB620A",
"w  c #D46203",
"e  c #DA6504",
"r  c #DB6807",
"t  c #D4660A",
"y  c #D86708",
"u  c #D6690E",
"i  c #DC6B0B",
"p  c #C56412",
"a  c #CA6612",
"s  c #CD6914",
"d  c #C66718",
"f  c #CD6C1B",
"g  c #D56E17",
"h  c #D26B14",
"j  c #DC6D10",
"k  c #DD6E11",
"l  c #D86D14",
"z  c #DA6E14",
"x  c #DA6F15",
"c  c #DB6F15",
"v  c #DD6E12",
"b  c #D46E18",
"n  c #D56E18",
"m  c #D56E19",
"M  c #D56F1A",
"N  c #D16D1A",
"B  c #DC7016",
"V  c #DC7116",
"C  c #DD7217",
"Z  c #DE7115",
"A  c #D6711C",
"S  c #D87019",
"D  c #D8701A",
"F  c #D8711B",
"G  c #D9711B",
"H  c #DA721B",
"J  c #DB721B",
"K  c #DD7118",
"L  c #DE7218",
"P  c #DE7319",
"I  c #DE741B",
"U  c #D8711C",
"Y  c #D9721C",
"T  c #DB731D",
"R  c #DB741E",
"E  c #DC741C",
"W  c #DF741C",
"Q  c #DF751C",
"!  c #DE751D",
"~  c #DF751D",
"^  c #DC751E",
"/  c #DD751E",
"(  c #DC751F",
")  c #DE761F",
"_  c #DE741B",
"`  c #DD7620",
"'  c #DD7621",
"]  c #DE7620",
"[  c #DF7720",
"{  c #DE7721",
"}  c #DF7721",
"|  c #DF7720",
" . c #DE7822",
".. c #DF7822",
"X. c #DF7823",
"o. c #DF7924",
"O. c #DF7822",
"+. c #E07923",
"@. c #E07924",
"#. c #E07A25",
"$. c #E07A26",
"%. c #E07B26",
"&. c #E17B26",
"*. c #E07B27",
"=. c #E07924",
"-. c #E07C28",
";. c #E17C28",
":. c #E07C29",
">. c #E17D29",
",. c #E17D2A",
"<. c #E17D2B",
"1. c #E17E2B",
"2. c #E17E2C",
"3. c #E17F2C",
"4. c #E27F2D",
"5. c #E17F2E",
"6. c #E17E2B",
"7. c #E1802E",
"8. c #E1802F",
"9. c #E2802F",
"0. c #E1802E",
"q. c #E18130",
"w. c #E18131",
"e. c #E28130",
"r. c #E28131",
"t. c #E28232",
"y. c #E28233",
"u. c #E28333",
"i. c #E28334",
"p. c #E28435",
"a. c #E28436",
"s. c #E28536",
"d. c #E28537",
"f. c #E28435",
"g. c #E28638",
"h. c #E28639",
"j. c #E38639",
"k. c #E3873A",
"l. c #E38639",
"z. c #E3883B",
"x. c #E3893C",
"c. c #E3893D",
"v. c #E38A3F",
"b. c #E38A3E",
"n. c #E48B41",
"m. c #E48C42",
"M. c #E48D43",
/* pixels */
"                                                                                                                        ",
"                                                                                                                        ",
"                                                                                                                        ",
"                                                                                                                        ",
"                                                                                                                        ",
"                                                                                                                        ",
"                                                                                                                        ",
"                                                                                                                        ",
"                                                                                                                        ",
"                                                                                                                        ",
"                                                                                                                        ",
"                                                                                                                        ",
"                                                                                                                        ",
"                                                                                                                        ",
"                                                                                                                        ",
"                                                                                                                        ",
"                                                                                                                        ",
"                                                                                                                        ",
"                    > ,                                                                         +                       ",
"                    4 4                                                                       2 4 1                     ",
"                    0 0                                                                       : s -                     ",
"                  $ a a $                                                                     : g -                     ",
"                  $ h s $                                                                     0 G :                     ",
"                  - m m $                                                                   @ a Y :                     ",
"                  - Y G -                                 < 3                               # s { 0                     ",
"                  : ^ R ;                               - a :                               $ g X.p @                   ",
"                  : { { :                               - h :                               $ m @.a @                   ",
"                O 0 o.X.7 O                             ; g 0                               - Y ,.h #                   ",
"                O a @.@.0 O                             : G p                               ; R ,.m $                   ",
"                @ a ,.,.a @                             : ^ a #                           o : { 2.G &                   ",
"                @ h ,.,.h @                           @ 0 { h $                           o 7 X.7.G & X                 ",
"                $ h 2.2.h #                           @ a @.m $                           O q o.t.^ = X                 ",
"              X & l 7.2.h & X                         @ s @.Y -                           @ q @.t.^ 5 o                 ",
"              X * l t.t.l & X                         # h ,.R -                           @ t @.d.^ 8 O                 ",
"              X = B t.t.l = X                         $ m ,.{ : o                       . $ u ,.d.{ q @                 ",
"              o 5 K i.t.B 5 X                         - G 2.X.7 o                       X & u ,.k.X.t @                 ",
"              O 8 K d.d.B 8 O                       X & G 7.o.q O                       X * u 2.z.+.y # .               ",
"              @ 9 K k.d.K 9 @                       X = ^ t.@.q @                       X = i 2.v.@.y & .               ",
"            . @ w I k.k.K w @ .                     o 5 ^ i.@.t @                       o 5 k 7.v.@.r * X               ",
"            . $ w ^ z.z.I w $ .                     O q ^ d.,.u #                       O 8 k t.n.,.r = X               ",
"            X & w ^ v.v.W w & X                     @ q { d.,.u & .                   X @ 9 k t.n.,.r 5 X X             ",
"          $ X * y ^ v.v.W y * X $                   @ t X.k.2.u & X                 & X # w k i.n.,.i 6 O O *           ",
"        5 & X 5 y ^ v.v.^ y = X & 5               . $ y +.z.7.j = X               5 5 X $ w k d.M.2.i 6 @ @ 5 5         ",
"    w w w $ o 5 r { n.v.^ y 5 X & w w w           . & y @.v.t.k 5 X             w w 5 X & w B d.M.2.i w @ o w w w       ",
"    e e e # O 6 r X.n.n.{ r 6 O $ e e e           X * r @.v.t.k 8 O           e e e 5 X * y B d.M.7.i w $ o w e e w     ",
"    5 e e = @ 9 r X.n.n.{ r 6 @ 5 e e 5           X = r @.n.t.k 9 @ .         * w e w @ 5 y B k.M.7.i w & # e e w &     ",
"    o 5 e e 5 w r X.n.n.+.r w 5 e e = o         O o 5 r ,.n.i.k w @ X         X $ w e 6 6 y B d.M.2.i e 5 w e 6 @ X     ",
"      o * y y y r I d.d.K r y r y * o         = @ O 6 i ,.n.d.B w $ X * =       X # w r y y k 2.k.@.i y y r 6 @ X       ",
"        X & y r r r i i r r r y - X         8 6 O @ 9 i ,.M.d.B w & X 5 6 6       X @ 9 r r r i i r r r r 5 O X         ",
"          X $ u k i i i i k h $ X         w w w o # w i 2.M.k.B y * X 5 e w w       X @ q k k i i i k k : o             ",
"            X $ g K K K K g $ X         6 e e w @ $ w i 2.M.k.B y 5 o 5 e e w         X O p K K B K G : o               ",
"              X # N +.+.f # X           O * e e 5 * w i 2.M.k.B y 5 & w e 6 @           X O p { +.R ; X                 ",
"                X @ d d @ X               X & w e w y i ,.n.d.B y w w e 5 O X               o 2 f % X                   ",
"                  X X X X                   X $ w r r r B o.^ i r r r = o X                   X X X                     ",
"                                              X $ t i i r r r r i u * o                                                 ",
"                                                X # h B k k k B l - X                                                   ",
"                                                  X @ s ^ ^ ^ D % X                                                     ",
"                                                    X O d o.A % X                                                       ",
"                                                      X O % @ X                                                         ",
"                                                          X X                                                           "
};
