/* XPM */
static char *_7d688cffac14fc791d507c883bc095d5i5SBEIDJw97BbH4[] = {
/* columns rows colors chars-per-pixel */
"60 60 181 2 ",
"   c None",
".  c #6F6F6F",
"X  c #706F6F",
"o  c #707070",
"O  c #55DDDB",
"+  c #5DDEDD",
"@  c #6ECCCA",
"#  c #6ED8D6",
"$  c #65DEDD",
"%  c #6EDEDD",
"&  c #72D7D6",
"*  c #7BD7D7",
"=  c #72DEDF",
"-  c #7BDBDB",
";  c #4DE5E4",
":  c #56E6E6",
">  c #5BE6E6",
",  c #64E6E6",
"<  c #6BE6E6",
"1  c #6BE7E8",
"2  c #6CEBE9",
"3  c #73E5E5",
"4  c #7CE4E4",
"5  c #74E6E8",
"6  c #7BE6E9",
"7  c #74EBEA",
"8  c #7CEBEB",
"9  c #888686",
"0  c #9DB3B2",
"q  c #9DBFBE",
"w  c #A4ADAE",
"e  c #A3B5B3",
"r  c #ACB4B5",
"t  c #A6B9B8",
"y  c #B1B5B5",
"u  c #B5B8B7",
"i  c #B9B8B4",
"p  c #B3BABA",
"a  c #BBBDBD",
"s  c #BDBFC0",
"d  c #97C7C7",
"f  c #9FC2C2",
"g  c #97CCCC",
"h  c #9CCBCB",
"j  c #9FD0CF",
"k  c #9DCFD0",
"l  c #8BD7D7",
"z  c #85D8D7",
"x  c #85D9DA",
"c  c #8CDADB",
"v  c #95D5D6",
"b  c #9DD5D5",
"n  c #96D8D7",
"m  c #9BD8D7",
"M  c #9AD7D9",
"N  c #93DBDC",
"B  c #9CDBDD",
"V  c #A5C4C4",
"C  c #ACC3C3",
"Z  c #A3C7C8",
"A  c #ADC7C9",
"S  c #A3CECF",
"D  c #B3C4C2",
"F  c #BCC2C2",
"G  c #B5C5C8",
"H  c #B3C9CA",
"J  c #BACBCC",
"K  c #A4CFD1",
"L  c #AACFD1",
"P  c #A4D3D5",
"I  c #ABD1D2",
"U  c #A4DBD6",
"Y  c #A6D6DB",
"T  c #A9D7DA",
"R  c #A4DADD",
"E  c #AADADE",
"W  c #B3D2D4",
"Q  c #BCD4D6",
"!  c #B6D7DB",
"~  c #B3DADD",
"^  c #BDD9DD",
"/  c #83DEE0",
"(  c #9EDFE1",
")  c #A1DFE1",
"_  c #AADFE2",
"`  c #B1DEE1",
"'  c #B9DDE1",
"]  c #82E5E5",
"[  c #8CE3E5",
"{  c #84E6E9",
"}  c #8CE6E9",
"|  c #83EBEB",
" . c #8BEBEC",
".. c #97E0E3",
"X. c #9BE2E4",
"o. c #94E6EA",
"O. c #9BE6EB",
"+. c #93ECED",
"@. c #9CECEE",
"#. c #95F1EF",
"$. c #9DEDF0",
"%. c #96F3F2",
"&. c #9BF2F1",
"*. c #A5E1E4",
"=. c #ACE0E3",
"-. c #A3E6EC",
";. c #AAE6EC",
":. c #A3EBEE",
">. c #ACEBEE",
",. c #B2E1E2",
"<. c #BCE6E8",
"1. c #B4EDEE",
"2. c #BFE8E9",
"3. c #A3EDF0",
"4. c #AAEDF0",
"5. c #B5EDF1",
"6. c #BBEEF1",
"7. c #A2F2F2",
"8. c #AEF3F2",
"9. c #B3F3F3",
"0. c #BDF4F4",
"q. c #C3C3C3",
"w. c #C8C6C6",
"e. c #CAC8C7",
"r. c #C5CACA",
"t. c #CBCCCB",
"y. c #D1CFCF",
"u. c #C4D2D3",
"i. c #CCD3D4",
"p. c #CBD7D9",
"a. c #C2D8D9",
"s. c #D3D3D3",
"d. c #D8D7D7",
"f. c #D2D7D8",
"g. c #D3DCDC",
"h. c #DBD9DA",
"j. c #DCDADB",
"k. c #DEDDDD",
"l. c #D8DCDC",
"z. c #E1DEDF",
"x. c #D3E1DF",
"c. c #C5DEE1",
"v. c #E3DFE0",
"b. c #C2E1E3",
"n. c #C7E4E5",
"m. c #C2E2E4",
"M. c #CDE1E3",
"N. c #C4E7E9",
"B. c #C4E9EB",
"V. c #CCE9ED",
"C. c #D1E1E1",
"Z. c #D7E4E5",
"A. c #D4E5E7",
"S. c #DCE5E5",
"D. c #DBEEEF",
"F. c #C7F0EF",
"G. c #C2EDF1",
"H. c #CDEFF3",
"J. c #DBEEF0",
"K. c #C0F2F3",
"L. c #C3F6F6",
"P. c #C4F5F5",
"I. c #CBF7F6",
"U. c #CAF4F5",
"Y. c #C6F8F7",
"T. c #CDF8F7",
"R. c #D2F4F6",
"E. c #DAF3F5",
"W. c #D3F8F7",
"Q. c #D7F6F8",
"!. c #DDF7F8",
"~. c #D5F9F9",
"^. c #DBFAF9",
"/. c #E5E2E3",
"(. c #E7E3E4",
"). c #E6E7E7",
"_. c #E9E6E6",
"`. c #E0F5F7",
"'. c #E0F6F8",
"]. c #E5F9FA",
"[. c #EBFAFB",
/* pixels */
"                                                                                                                        ",
"                              )._._.(././.v.z.k.k.j.h.h.d.s.s.s.s.y.y.t.t.e.e.e.w.q.q.q.q.                              ",
"                              S.b n m b P P W a.a.Q W W W I I P K k g j I I g g h h h V q.                              ",
"                              C.O ; > , 3 6 :.6.6.;.-.O.o.} { 6 5 < <  .@. ., < 3 6  .B F                               ",
"                              C.+ : , < 6 +.K.U.5.-.O.o.} { { 6 5 1 8 7.&.5 1 5 8  .+.( F                               ",
"                              C.$ > < 3 c ,.n.b.E R B M N c x * * * B =.N & * x [ +.@.) F                               ",
"                              C.$ , < l r.u.r.J H H H A A V V V f C D V q q q t v +.@.*.F                               ",
"                              g.% < 5 N p.E.B.*.X...[ [ ] 4 3 < 6 1.1.] 3 6 ] d b $.3._ F                               ",
"                              g.= 3 6 ~ g.E.>.-.O.o.} { 6 5 1 2 8.L.7.7 8 | | h b $.4._ F                               ",
"                              g.- 5 :.Z.g.G.-.O.o.} { { 6 5 < +.I.0.8 7 8 |  .h P 3.4.` a                               ",
"                              g.-  .Q.S.u.;.-.O.o.} { 6 5 < | I.~.&.7 8 |  .+.h P 4.5.m.s                               ",
"                              g./ 9.].Z.W -.O.o.} { 6 5 5 7 9.^.0.7 7 8 |  .+.h P 4.U.A.a                               ",
"                              g.X.R.!.c.W O.O.o.} { 6 8 7 &.^.^. .7 8 |  .+.@.Z P 6.!.Z.a                               ",
"                              g.2.R.U.~ L O.o.} { | 8 8 | W.[.8.7 7 8 |  .+.@.Z I R.].Z.a                               ",
"                              l.B.U.1.T L o.} }  .| 8 7 9.].T.8 5 8 |  .+.@.:.Z Q ].[.M.a                               ",
"                              l.N.6.-.Y L o.o. .| 8 7  .~.^.#.2 7 8 |  .+.@.:.Z g.[.!.c.a                               ",
"                              l.<.>.-.Y L +.+. .| 8 8 0.~.9.5 7 8 |  .+.@.:.>.A g.[.H.' u                               ",
"                              l.=.-.:.R L +. .| 8 7 &.T.L.8 2 8 |  .+.@.@.:.0.r.l.E.G.` u                               ",
"                              g._ ;.:.R K  .| | 8 | 0.Y.#.2 7 8 |  .+.@.:.>.!.t.p.H.6.R p                               ",
"                              f.=.;.:.R S  .| 8 8 8.T.8.7 5 7 8 |  .@.:.>.U.[.r.Q G.>.B p                               ",
"                              f.=.:.@.B S | 8 8 &.I.L.| 5 7 8 8 | +.@.:.5.!.[.r.W 5.:.N p                               ",
"                              i.*.@.+.M h | 8 +.Y.Y.#.2 7 8 8 |  .+.:.>.R.].'.G I 4.+.c r                               ",
"                              i.*.@.+.n h ] ] 1.F.>.] 3 4 4 ] [ [ X.*.<.D.J.V.C P @. .x r                               ",
"                              i.X.+. .c C V C D p e 0 0 0 0 0 e 0 0 e y y r r w b +.| - r                               ",
"                              i.X.+. .] x - ..X.N l x x x x x x x z U x.c.^ ~ R o. .7 % r                               ",
"                              i... .| 8 7 | &.%.| | | | | | | | |  .I.].U.G.5.3. .8 2 $ r                               ",
"                              i.b N c x x B B N l c l c c c c c c R A.M.^ ! T M l * # @ r                               ",
"                              s.i.t.t.t.r.r.r.r.r.r.r.r.r.r.q.r.r.e.e.q.a u u y y y r r y                               ",
"                                                        a q.9                                                           ",
"                                                          q.X                                                           ",
"                                                          q.o                                                           ",
"                                                          q.o                                                           ",
"                                                          q.o                                                           ",
"                                                          q.o                                                           ",
"                                                          q.o                                                           ",
"                                                          q.o                                                           ",
"                                                          q.o                                                           ",
"                                                          q.o                                                           ",
"                                                          q.o                                                           ",
"                                                          q.o                                                           ",
"                                                          q.o                                                           ",
"                                                          q.o                                                           ",
"                                                          q.o                                                           ",
"                                                          q.o                                                           ",
"                                                          q.o                                                           ",
"                                                          q.o                                                           ",
"                                                          q.o                                                           ",
"                                                          q.o                                                           ",
"                                                          q.o                                                           ",
"                                                          q.o                                                           ",
"                                                          q.o                                                           ",
"                                                          q.o                                                           ",
"                                                          q.o                                                           ",
"                                                        i q.o                                                           ",
"                                                          q.o                                                           ",
"                                                          q.o                                                           ",
"                                                          q.o                                                           ",
"                                                          q.o                                                           ",
"                                                          q..                                                           ",
"                                                                                                                        "
};
