/* XPM */
static char *c3daaa7e643c4277cba389cb41d22cc1MJe2dJFpwl8hBpO9[] = {
/* columns rows colors chars-per-pixel */
"60 60 209 2 ",
"   c None",
".  c #6F6F6F",
"X  c #7E786E",
"o  c #707070",
"O  c #B53025",
"+  c #C2523D",
"@  c #C94A34",
"#  c #B74A48",
"$  c #B35752",
"%  c #BF6E5A",
"&  c #AE746F",
"*  c #C05045",
"=  c #C34642",
"-  c #CB795C",
";  c #CC7C64",
":  c #BF8974",
">  c #B99077",
",  c #BAA375",
"<  c #D09568",
"1  c #E48863",
"2  c #D0B56F",
"3  c #CCB27E",
"4  c #CFB676",
"5  c #DABD7C",
"6  c #D9BA77",
"7  c #C8AC73",
"8  c #EAAE7C",
"9  c #DEC17E",
"0  c #E2C37F",
"q  c #59DEDC",
"w  c #65DEDD",
"e  c #6EDCDA",
"r  c #7BD7D7",
"t  c #7BDBDB",
"y  c #72DBDB",
"u  c #6ECCCA",
"i  c #7EE3DD",
"p  c #59E6E6",
"a  c #4DE5E4",
"s  c #64E6E6",
"d  c #6BE6E6",
"f  c #6BE7E8",
"g  c #6DECEA",
"h  c #73E5E6",
"j  c #7BE4E5",
"k  c #74E6E8",
"l  c #7BE6E9",
"z  c #74EBEA",
"x  c #7CEBEB",
"c  c #979A99",
"v  c #968D86",
"b  c #9EAE9E",
"n  c #ACB091",
"m  c #B8B494",
"M  c #B6B08A",
"N  c #9DBFBE",
"B  c #9CB6B4",
"V  c #93B0A5",
"C  c #A4ADAE",
"Z  c #ACB4B5",
"A  c #ABB8B8",
"S  c #B2B5B5",
"D  c #B4B9B9",
"F  c #BABCBD",
"G  c #B7B8B6",
"H  c #BEBBAB",
"J  c #CCB788",
"K  c #D4B68A",
"L  c #D4B494",
"P  c #E1BD8E",
"I  c #C3BCAC",
"U  c #B8CEAE",
"Y  c #A4C2B2",
"T  c #DCC284",
"R  c #DCC48D",
"E  c #DBC48F",
"W  c #CBC39F",
"Q  c #D3C295",
"!  c #DBC593",
"~  c #DEC994",
"^  c #D8C79C",
"/  c #DCCA9C",
"(  c #D4C79C",
")  c #E2C586",
"_  c #E3C98B",
"`  c #E2CB94",
"'  c #E4CE98",
"]  c #EBD39E",
"[  c #C8CBA9",
"{  c #D3CDA3",
"}  c #DBCCA2",
"|  c #D3CCAA",
" . c #CDD2AA",
".. c #C4D0AA",
"X. c #DCD3A9",
"o. c #D8D1A4",
"O. c #D9DBB6",
"+. c #C8CEB8",
"@. c #E3D3A5",
"#. c #E9D7AC",
"$. c #E8DAB4",
"%. c #BDBFC0",
"&. c #9CCBCB",
"*. c #9AC7C7",
"=. c #9ED5C8",
"-. c #9DCFD0",
";. c #83DADB",
":. c #8BDADB",
">. c #8BD7D7",
",. c #9DD5D5",
"<. c #93DBDC",
"1. c #9CDBDD",
"2. c #98D7D7",
"3. c #A4C4C3",
"4. c #ACC3C4",
"5. c #A3C7C8",
"6. c #ADC7C9",
"7. c #A3CECF",
"8. c #BCC1C2",
"9. c #B3C9CA",
"0. c #B6C7C8",
"q. c #B2DDC1",
"w. c #A4CFD1",
"e. c #AACFD1",
"r. c #A4D3D5",
"t. c #ABD1D2",
"y. c #A4DADD",
"u. c #A8D7DB",
"i. c #B3D2D4",
"p. c #BCD4D6",
"a. c #B3DADD",
"s. c #BCD9DC",
"d. c #B4DBD6",
"f. c #A1E1DD",
"g. c #83DEE0",
"h. c #9EDFE1",
"j. c #AADFE2",
"k. c #A1DFE1",
"l. c #B1DEE1",
"z. c #B9DDE1",
"x. c #81E5E6",
"c. c #8BE4E5",
"v. c #84E6E9",
"b. c #8CE6E9",
"n. c #83EBEB",
"m. c #8BEBEC",
"M. c #9BE2E4",
"N. c #94E6EA",
"B. c #9BE6EB",
"V. c #94ECED",
"C. c #9CECEE",
"Z. c #97E1E4",
"A. c #95F0EE",
"S. c #9DEDF0",
"D. c #9BF2F1",
"F. c #A5E0E3",
"G. c #ACE0E3",
"H. c #A3E6EC",
"J. c #A3EBEE",
"K. c #ABEAEE",
"L. c #AAE6EC",
"P. c #B3ECEE",
"I. c #BAE5E6",
"U. c #A3EDF0",
"Y. c #AAEDF0",
"T. c #B5EDF1",
"R. c #BBEEF1",
"E. c #A4F3F3",
"W. c #ADF3F2",
"Q. c #B3F3F3",
"!. c #BDF4F4",
"~. c #C3C3C3",
"^. c #C5CBCC",
"/. c #CBCCCC",
"(. c #C9C7C7",
"). c #D1CFCF",
"_. c #C4D2D3",
"`. c #CCD3D4",
"'. c #C7D9D9",
"]. c #D3D3D3",
"[. c #D3DCDC",
"{. c #DBDBDB",
"}. c #D5D7D8",
"|. c #E1DEDF",
" X c #DAE2CD",
".X c #C4DEE1",
"XX c #E3DFE0",
"oX c #C4E2E4",
"OX c #C9E8EA",
"+X c #D3E3E4",
"@X c #DCE5E5",
"#X c #C3EDF1",
"$X c #CDEFF3",
"%X c #DAEEF1",
"&X c #C4F4F5",
"*X c #CAF4F5",
"=X c #CEF8F7",
"-X c #C1F9F9",
";X c #D2F4F7",
":X c #DAF3F5",
">X c #DDF7F8",
",X c #D5F9F9",
"<X c #DBFAF9",
"1X c #D5F7F8",
"2X c #E6E3E4",
"3X c #E9E6E6",
"4X c #E5F9FA",
"5X c #EBFAFB",
"6X c #E0F6F8",
/* pixels */
"                                                                                                                        ",
"                              3X3X3X2X2X2XXX|.{.{.{.{.{.}.}.].].].).)././././.(.(.~.~.~.~.                              ",
"                              @X,.2.2.,.r.r.i.'.'.p.i.i.i.t.t.r.w.-.&.-.t.t.&.&.&.&.&.3.~.                              ",
"                              +Xq a p s h l J.R.R.L.H.B.N.b.v.l k d d m.C.m.s d h l m.<.8.                              ",
"                              +Xq p s d l V.&X*XP.H.B.N.b.v.v.l k f x E.D.k f k x m.V.h.8.                              ",
"                              +Xw p d h :.G.oXoXu.y.1.2.<.:.;.r r r 1.f.<.y r ;.c.V.C.k.8.                              ",
"                              +Xw s d >.^._.^.0.9.9.9.6.6.3.3.3.*.4.4.3.N N N A 2.V.C.F.8.                              ",
"                              [.e d k <.'.:X#XF.M.Z.c.c.x.j h d l P.P.l h l x.*.,.S.U.j.8.                              ",
"                              [.y h l a.[.:XK.H.B.N.b.v.l k f f W.&XE.z x n.n.&.,.S.Y.j.8.                              ",
"                              [.t k J.+X[.#XH.B.N.b.v.v.l k d V.*X!.x z x n.m.&.r.U.Y.l.F                               ",
"                              [.t m.1X@X_.L.H.B.N.b.v.l k d n.*X,XD.z x n.m.V.&.r.Y.T.oX%.                              ",
"                              [.g.Q.4X@Xi.H.B.N.b.v.l l k z Q.<X!.z z x n.m.V.&.r.Y.&X+XF                               ",
"                              [.M.;X>X.Xi.B.B.N.b.v.l x z D.<X<Xm.z x n.m.V.C.5.r.R.>X+XF                               ",
"                              [.I.1X*Xa.e.B.N.b.v.n.x x n.1X5XW.z z x n.m.V.C.5.t.;X4X+XF                               ",
"                              {.OX*XT.u.e.N.b.b.m.n.x z Q.4X=Xx k x n.m.V.C.J.5.p.4X5X+XF                               ",
"                              [.OXR.H.u.e.N.N.m.n.x z m.,X<XA.f z x n.m.V.C.J.5.[.5X6X.XF                               ",
"                              [.I.K.H.u.e.N.N.m.n.x x !.,XQ.k z x n.m.V.C.J.K.6.[.5X$Xz.G                               ",
"                              [.G.H.J.y.e.N.m.n.x z D.=X&Xx f x n.m.m.C.C.J.!.^.[.:X#Xl.G                               ",
"                              [.j.K.J.y.w.m.n.n.x n.!.&XA.f z x n.m.V.C.J.K.>X/.'.$XR.y.D                               ",
"                              }.G.K.C.y.7.m.n.x z E.-XE.g g z x m.V.C.J.K.&X5X^.p.#XK.1.D                               ",
"                              }.G.J.C.1.7.n.x z c.s.8.Y V c c Y B &.f.J.T.>X5X^.i.T.J.<.D                               ",
"                              `.j.C.V.2.&.n.x =.: = # - - $ $ < * # < [ $X4X6X0.t.Y.V.:.Z                               ",
"                              `.k.C.V.2.&.j i L 1 : v M n b m m > & @ 8  X%XOX4.r.C.m.;.Z                               ",
"                              `.h.V.m.:.4.3.3.| #.- + K ; O - K + + % P H S Z C ,.V.n.t Z                               ",
"                              `.M.V.m.x.;.t M.d. . .X. .{ W { U ^ ..~ X.'.s.a.y.N.m.z e Z                               ",
"                              `.Z.m.n.x z n.D.A.q.O.O. . .O.[ o. .#.}  X;X#XT.U.m.x g w Z                               ",
"                              `.,.<.:.;.;.1.1.:.=. .( { |  .} { } / ^ '.s.a.u.2.>.r e u Z                               ",
"                              ].`./././.^.^.^.^.+.( ^ } ( } ^ @.` E L F F G D D S S Z Z S                               ",
"                                                  J $.Q ^ Q Q ~ R T J                                                   ",
"                                                  @.#./ Q / ! R R _                                                     ",
"                                                    T ` } ~ J ! ) 9                                                     ",
"                                                    R ` / K 3 R ) 6                                                     ",
"                                                    @.' T / J 6 _ T                                                     ",
"                                                  ~ ` _ 5 ~ K 5 ) T                                                     ",
"                                                  ` 0 ) ] ) 7 ` 0 0 _                                                   ",
"                                                  9 ) 4 ~ K 3 T 9 2                                                     ",
"                                                        m I , 6                                                         ",
"                                                          ~.X                                                           ",
"                                                          ~.o                                                           ",
"                                                          ~.o                                                           ",
"                                                          ~.o                                                           ",
"                                                          ~.o                                                           ",
"                                                          ~.o                                                           ",
"                                                          ~.o                                                           ",
"                                                          ~.o                                                           ",
"                                                          ~.o                                                           ",
"                                                          ~.o                                                           ",
"                                                          ~.o                                                           ",
"                                                          ~.o                                                           ",
"                                                          ~.o                                                           ",
"                                                          ~.o                                                           ",
"                                                          ~.o                                                           ",
"                                                          ~.o                                                           ",
"                                                        G ~.o                                                           ",
"                                                          ~.o                                                           ",
"                                                          ~.o                                                           ",
"                                                          ~.o                                                           ",
"                                                          ~.o                                                           ",
"                                                          ~..                                                           ",
"                                                                                                                        "
};
