/* XPM */
static char *house_snow_removebg_preview__1_1708947621[] = {
/* columns rows colors chars-per-pixel */
"60 60 81 1 ",
"  c None",
". c #50565B",
"X c #61656B",
"o c #686D73",
"O c #6E7378",
"+ c #717477",
"@ c #7A7C7D",
"# c #767C84",
"$ c #797E83",
"% c #7C8287",
"& c #83878A",
"* c #85898C",
"= c #858C96",
"- c #8C8F90",
"; c #93979B",
": c #9A9C9F",
"> c #9197A0",
", c #959BA2",
"< c #9A9EA2",
"1 c #929BA9",
"2 c #929FB1",
"3 c #9DA0A4",
"4 c #9FA5AE",
"5 c #96A2B3",
"6 c #9FA7B3",
"7 c #9FAAB6",
"8 c #97A5B8",
"9 c #99A6B9",
"0 c #9DA9BC",
"q c #A1A5AA",
"w c #A6AAAF",
"e c #A9ADAF",
"r c #A5ABB3",
"t c #A9AEB3",
"y c #ADB1B4",
"u c #AEB5BC",
"i c #B1B4B7",
"p c #B2B6BC",
"a c #B6B9BC",
"s c #BABBBD",
"d c #ACB7C4",
"f c #ADB9C9",
"g c #B4BAC3",
"h c #B8BEC5",
"j c #B2BCCB",
"k c #BBC0C6",
"l c #BBC3CD",
"z c #BBC5D3",
"x c #BFC9D6",
"c c #BDC9D9",
"v c #C3C6C8",
"b c #C6CACF",
"n c #C9CCCE",
"m c #C4CBD3",
"M c #C3CEDB",
"N c #C9CFDE",
"B c #CDD2D6",
"V c #C6D1DE",
"C c #CAD3DE",
"Z c #D1D2D2",
"A c #D0D6DA",
"S c #C6D2E2",
"D c #CBD6E5",
"F c #CDD8E6",
"G c #CCD7E8",
"H c #CCD8E8",
"J c #D2DAE6",
"K c #DBDEE3",
"L c #D2DCE9",
"P c #DDE1E5",
"I c #E2E4E5",
"U c #E2E6EB",
"Y c #E6E9EB",
"T c #EAECED",
"R c #E0E7F0",
"E c #ECEEF1",
"W c #EEF1F2",
"Q c #F3F5F5",
"! c #F6F7F9",
"~ c #F7F9FA",
"^ c #FDFDFD",
/* pixels */
"                                                            ",
"                                                            ",
"                                                            ",
"                                                            ",
"                                                            ",
"                                                            ",
"                                                            ",
"                                                            ",
"                                                            ",
"                                                            ",
"                                                            ",
"                                                            ",
"                                                            ",
"                                                            ",
"                                                            ",
"                                                            ",
"                                                            ",
"                                                            ",
"                           e*                               ",
"                       :plJPYYne                            ",
"                     *mCGHHJQ^^UB3                          ",
"                    3MSMMVGVAWIT^!y                         ",
"                   yJFHFVSFGL~!W^^Qq                        ",
"                  <CFGFGMGHHHW^T^^^P%                       ",
"                  lVDHHHMHGGGP^WWQIYk                       ",
"                 pPSccVVMSDSSJWTT!WWY$                      ",
"                 PHHcHDSSSDCMHW^^^^Y~w                      ",
"                kHHSVHHHGGGGVGE^^~^YTk                      ",
"                BHHVSHHHGHGFVGP~Pvsisy&;&                   ",
"                CFGVDHHHHGGGVSHPQTY!~YT~IZ@                 ",
"               ;VcSzDGHHHGGGCSVQ!Y^^QE^EK^Z                 ",
"               yFcVzVSSSSDSGMxKTWYPYBQI<q!T+                ",
"               pFSGFDDSVMGDDMMPE!~YEUTq25BQ<                ",
"               hSSGGGGFFVFFFScMGHLFKQ^q99b^s                ",
"             ;ikMDHGFFGFDGFGMcMSSVMVQI=09uK-                ",
"           <bCVljMHFGGGFDGGFMVGVVVDBYn.89;yllzMCzlMN        ",
"         MCFHzzVludMHGGJDGGFDGHSSGFK^Io166SHFFF             ",
"          FHHVcSHSlrjMDDMxxMzgggMGGCIa<ggCLGGGFFJ           ",
"        FFFScfdfffjMg>,;#XXO>tlhwr63wlmCDJJFGF              ",
"            SGGSNFFFHFSSDDDFGjcHFVMDJJ                      ",
"           FFFFFFFGFGGFGFFGGGGGGGGFGF                       ",
"                              FFGFFFF                       ",
"                                                            ",
"                                                            ",
"                                                            ",
"                                                            ",
"                                                            ",
"                                                            ",
"                                                            ",
"                                                            ",
"                                                            ",
"                                                            ",
"                                                            ",
"                                                            ",
"                                                            ",
"                                                            ",
"                                                            ",
"                                                            ",
"                                                            ",
"                                                            "
};
