/* XPM */
static char *face__2_1708950744[] = {
/* columns rows colors chars-per-pixel */
"60 60 208 2 ",
"   c None",
".  c #12120E",
"X  c #1D170E",
"o  c #151414",
"O  c #1B1614",
"+  c #1D1A15",
"@  c #15161A",
"#  c #1A161A",
"$  c #14191D",
"%  c #1C1A1B",
"&  c #241B13",
"*  c #2B1C12",
"=  c #221D1B",
"-  c #21171C",
";  c #24221E",
":  c #2A241C",
">  c #2E2719",
",  c #3B2518",
"<  c #34281A",
"1  c #0F1C25",
"2  c #131C24",
"3  c #1B1D21",
"4  c #141E29",
"5  c #241D23",
"6  c #291D26",
"7  c #1C2224",
"8  c #14212B",
"9  c #19222A",
"0  c #152633",
"q  c #242323",
"w  c #2A2425",
"e  c #2C232A",
"r  c #2B2A2B",
"t  c #292826",
"y  c #332B22",
"u  c #322B2B",
"i  c #3C3225",
"p  c #3C342B",
"a  c #353128",
"s  c #2E2E31",
"d  c #332531",
"f  c #3D2C3A",
"g  c #382A35",
"h  c #2E3134",
"j  c #333234",
"k  c #3B3634",
"l  c #3D3B3A",
"z  c #393638",
"x  c #4B3014",
"c  c #573A19",
"v  c #433A2C",
"b  c #483A2A",
"n  c #443B37",
"m  c #412C3F",
"M  c #5F431D",
"N  c #684318",
"B  c #734A1B",
"V  c #4E4233",
"C  c #46423A",
"Z  c #524534",
"A  c #594A34",
"S  c #5A4E3A",
"D  c #534839",
"F  c #5D513E",
"G  c #5E4220",
"H  c #764B20",
"J  c #61523D",
"K  c #695534",
"L  c #765B32",
"P  c #634F2F",
"I  c #3D3B41",
"U  c #422F41",
"Y  c #453244",
"T  c #4A3948",
"R  c #50384E",
"E  c #523A52",
"W  c #4F3A51",
"Q  c #4C4944",
"!  c #4B4A4B",
"~  c #474445",
"^  c #514D47",
"/  c #504E4F",
"(  c #4E4C50",
")  c #5D415B",
"_  c #5C5B5B",
"`  c #565557",
"'  c #685A45",
"]  c #62415E",
"[  c #625F5C",
"{  c #74644C",
"}  c #7C6A4D",
"|  c #7D674F",
" . c #68635D",
".. c #7C6C51",
"X. c #776550",
"o. c #776B51",
"O. c #634160",
"+. c #665A66",
"@. c #666465",
"#. c #6C6B6C",
"$. c #696767",
"%. c #77736D",
"&. c #746975",
"*. c #7D7B7D",
"=. c #777576",
"-. c #99662A",
";. c #AF7329",
":. c #C37F2C",
">. c #826E56",
",. c #857255",
"<. c #847359",
"1. c #8B7859",
"2. c #917A59",
"3. c #8D7C62",
"4. c #927E63",
"5. c #D08831",
"6. c #94815E",
"7. c #998665",
"8. c #84827C",
"9. c #8B847E",
"0. c #A28C6C",
"q. c #A08B67",
"w. c #AA936D",
"e. c #AA9572",
"r. c #B29A76",
"t. c #AD916F",
"y. c #BAA37C",
"u. c #B9A277",
"i. c #C1A57B",
"p. c #C2AA7B",
"a. c #7D7D82",
"s. c #867E86",
"d. c #7F8083",
"f. c #878589",
"g. c #888888",
"h. c #938F87",
"j. c #93918B",
"k. c #9A928C",
"l. c #8E8D91",
"z. c #939295",
"x. c #9B9897",
"c. c #8F9095",
"v. c #A59E9A",
"b. c #AEA49D",
"n. c #B8A380",
"m. c #9B9CA2",
"M. c #A09EA2",
"N. c #A5A5AA",
"B. c #ACABAE",
"V. c #A6A4A8",
"C. c #B4ADA6",
"Z. c #B6B1AC",
"A. c #ADADB2",
"S. c #B2ADB6",
"D. c #B2B1B6",
"F. c #B4B3BB",
"G. c #BAB8B7",
"H. c #AEB0B4",
"J. c #C4AC85",
"K. c #C4AA83",
"L. c #CCB387",
"P. c #D1B385",
"I. c #D3B689",
"U. c #D5B98B",
"Y. c #DBBC8D",
"T. c #DDBF91",
"R. c #E0BE89",
"E. c #C3BAB0",
"W. c #DEC190",
"Q. c #DDC08E",
"!. c #E4C28E",
"~. c #E4C493",
"^. c #ECCB94",
"/. c #EBCB99",
"(. c #E5C694",
"). c #F2CF98",
"_. c #F4D39B",
"`. c #FDD69C",
"'. c #FDD99D",
"]. c #F6D59A",
"[. c #EFD097",
"{. c #CEC7BC",
"}. c #FEDBA1",
"|. c #F5D4A1",
" X c #BCBCC3",
".X c #BFC0C7",
"XX c #C5C5CB",
"oX c #C5C6CB",
"OX c #CCCCD2",
"+X c #D4D4D9",
"@X c #D8D1D0",
"#X c #E3DCCE",
"$X c #F2E6DA",
"%X c #DBDCE4",
"&X c #D7D7E0",
"*X c #E0DFE9",
"=X c #DFE1E9",
"-X c #E4E4ED",
";X c #EBEBEF",
":X c #E3E4E6",
">X c #E6E8F2",
",X c #EBECF3",
"<X c #E6E7F3",
"1X c #EEF1F6",
"2X c #F2F2F5",
"3X c #F5F5F8",
"4X c #FDFDFE",
"5X c #F7F8FA",
/* pixels */
"                                                                                                                        ",
"                                                                                                                        ",
"                                                                                                                        ",
"                                                                                                                        ",
"                                                                                                                        ",
"                                                                                                                        ",
"                                                                                                                        ",
"                                                                                                                        ",
"                                                              9 8                                                       ",
"                                                        4 $ r I I h 2 2                                                 ",
"                                                      2 h f.OX%X%X+Xx.l $                                               ",
"                                                    2 h N.OX XF.F. XXXF.T $ 7 7 ; ; q 7                                 ",
"                                        9 3 7 7 % $ o t l r q 7 q q q j r X x K L L L y                                 ",
"                                      8 i P P b % @ t Q &.z.B.D.G.B.x.d.` h = > > > > 8                                 ",
"                                        y b < & ~ g.OX;X4X4X4X4X4X4X4X4X1X+XM.` 3 @                                     ",
"                                        9 o j c.:X4X4X5X3X2X,X1X;X1X2X2X5X4X4X1XA.! $ 9                                 ",
"                                      0 $ _ OX4X4X2X1X>X>X>X>X>X>X>X>X>X>X,X1X5X4X:X*.q 8                               ",
"                                    0 % %.-X4X1X,X<X<X<X<X,X,X<X<X>X>X>X>X>X>X;X;X5X5Xx.t 2                             ",
"                                    $ =.;X3X;X>X>X>X>X<X<X XA..X>X>X>X<X>X>X>X>X>X,X1X3XM.q 8                           ",
"                                  $ _ :X2X>X>X<X>X>X>X=Xa.t 7 h m.>X>X<X>X>X>X>X>X>X>X;X2Xf.$                           ",
"                                9 h OX,X;X-X<X>X>X>X,Xz.3 #.H.( j OX<X<X<X<X<X<X>X>X-X:X<X%X` $                         ",
"                                $ a.,X%XXXoX+X&X=X>X%X~ ! %X1XD.7 z.,X<X>X-X-X%X+XOX X X+X,XS.9                         ",
"                              9 t F.-X X@.( =.c.N. XA.q d.,X-X Xj #.%X&XOXXXG.B.z.=.` _ A.%X%X( 2                       ",
"                              $ ( .XOXf.= y ; = r I ! $ l.<XOX#.h ` S.m.f.@.~ u ; ; y + $..X<Xf.2                       ",
"                              2 =. XN.j b y.u.7.o.D y O #.XXx.7 o t j w = y n { 4.r.n.J q c.+Xm.%                       ",
"                              7 x.F.` & 0.Q.^.!.T.U.y.< /  Xl.% : v J <.0.K.I.R.~.^.^.u.y T A.N.r                       ",
"                            0 r V.l.= { U.^.'.'._._./.' t N.f.% 3.L.U.!.~.^.).].`.`.].Q.3.+ =.B.h 4                     ",
"                            9 j S.a.= e.!.`.`.`.}.}.}.r.& @.f.= w.^._.].`.`.'.'.}.}.'.].J.y ` S.j 2                     ",
"                            4 l S.s.% w.Q.u.2.} ,.0.I.(.' % ! + 7.'.'.'.].I.q.,.| 2.u.^.P.y _ A.z 1                     ",
"                            4 z S.=.= r.P.y.w.,.S < y J e.' % . ..'.'.P.F > < S ,.w.i.!.L.y ` A.j 4                     ",
"                            9 s N.+.< K.^.].Q.U.U.L.0.A e.T.7.V A [.}.e.A 0.L.I.U.Y.`.}.I.v ! M.r                       ",
"                              7 z.~ v P.(.,.p a a D <.J._.].[.U.u.[.'._.J.,.Z a p v <._.~.D l f.3                       ",
"                              2 $.z S Y.7.n 8.C C C Q V W.'.'.'.'.'.'.Y.b Q n l ! 8.k r.^.' s _ $                       ",
"                              2 r % X.Y.S =.g.$.t l x.Q 0.}.'.'.'.`.'.7.^ v.z.k a 8.%.' [...= r 2                       ",
"                                @ X ..U.V v.8.g.7 a x. .,.'.`.`.'.'.'.} #.x.%.t ; %.x.V (.7.o @                         ",
"                                8 o D L.Z k.h._ #.C Z.[ 2.'.`.'.'.'.'.<. .Z.C =.Q j.c.A /.1.o 7                         ",
"                                  2 = w.1.^ G.g.8.h.Z.p y.}.'.'.`.'.'.u.v G.j.8.8.G.Q 1.(.v @                           ",
"                                  0 8 p y.F C  .[  .V ..].'.'.`.`.'.'.].{ n @. . .C J W...@ 4                           ",
"                                      $ C y.r.,.o.1.w.[.}.'.].[._.`.`.'.^.w.1.} <.r.W.<.+ 8                             ",
"                                        $ a 0.(.}.}.}.'.'.'.].!.!.'.'.'.'.'.'.}.|.p.F O 8                               ",
"                                          2 % v ..r.I.^._.}.}.}.}.`.}.`./.Y.p.6.F ; $                                   ",
"                                              4 o + > p S ' X.>.<.>.{ J V i = o 2                                       ",
"                                              8 O @ @ k q o O O # % - 6 % o # $ 0                                       ",
"                                            2 3 g % n v.9.t # % 6 R Y R I % w g %                                       ",
"                                            3 Y E % = %.C.9.p O 6 R R R E d - W g @                                     ",
"                                          2 d E m % = q %.C.k.C O 5 f R R f # U E 5 4                                   ",
"                                        4 h s.+.w 5 Y 6 = $.b.b. .w # e 6 % O 6 &.=.5                                   ",
"                                        1 I XXS.t d E T 5 % Q k.C.h.! = . & v 6 M.m.7 8                                 ",
"                                        $ + t ! O % - - O o X t %.{.#XC.` : X O h w ; %                                 ",
"                                      2 D 7.' 5 > M x < * & X X X n h.#X$XE.$.% > ,.7.v 4                               ",
"                                      % r.U.y.p c 5.5.5.5.;.;.;.-.c & k %.E.{.p a p.(.,.@                               ",
"                                      % 3._./.V X , x c c N B H H M > o . = l ; n /.U.v 1                               ",
"                                      4 ; ..e.p 6 f d d 6 6 5 % 5 6 6 e d g d 5 = { p 2                                 ",
"                                        4 o O O Y O.O.O.O.) T 5 e E ] ] ] ] ] R 5 O 4                                   ",
"                                          $ @ o 5 d f U Y m 5 $ # 6 U Y f f d e $ $                                     ",
"                                                2 o o O # # @ 9 9 o @ # @ o @ 2                                         ",
"                                                  @ O & O O @     @ O + & O @                                           ",
"                                                  2 & , , & $     @ & , , & 2                                           ",
"                                                  1 O * * @         O * * O                                             ",
"                                                    2 @ 2             $ $ 1                                             "
};
