/* XPM */
static char *snowfloor1708946337[] = {
/* columns rows colors chars-per-pixel */
"60 60 35 1 ",
"  c #BABBBD",
". c #BEBFC1",
"X c #BEC1C3",
"o c #C3C4C6",
"O c #C5C6C9",
"+ c #C6C9CB",
"@ c #CBCCCD",
"# c #D3CFCE",
"$ c #CED1CE",
"% c #CDCED1",
"& c #CED1D2",
"* c #D3D4D5",
"= c #D9D5D6",
"- c #D5D9D6",
"; c #D9DAD7",
": c #D5D6D9",
"> c #D8D6D9",
", c #D6D9DA",
"< c #DCDCDC",
"1 c #E0DCDD",
"2 c #DEE0DF",
"3 c #E0E2DF",
"4 c #DEDEE1",
"5 c #DFE1E1",
"6 c #DEE1E8",
"7 c #E3E3E4",
"8 c #E6E8E7",
"9 c #E9E9E7",
"0 c #E5E5E8",
"q c #E7E9E8",
"w c #EBEBEB",
"e c #EEF0EF",
"r c #F1F1EF",
"t c #F2F2F1",
"y c #F9F9F7",
/* pixels */
"yyrrrrrrwrrrrrrrrtrrwwrwr0wwww009w0wwwrwtr000999479944797999",
"twwwrrrrrrwrrrr9rrtrrwrwtrwrrtrrww900790r907099049ww0779009w",
"ww9w9rwwrrwww9r9rrrrrwrwww0wwttrw090w7079977799779ww97797779",
"rwrwrwrrrrrwwrrrwwwwwwwr0w0wttrw7099wrrr71779774410774797177",
"rrrr9rwrrrrr9rrrwwwweettttwrtttt00wwwrwr77779077144777777700",
"r9rw39w39999wrrrrrertttttttr0tw090ww997700779797770907790999",
"99w9933r99w9r9wwtttteeer0rw0w0w0wwwww074w7777777w99707440779",
"999w9w3rrrrrrrwwttrw0007twwwrrww9wweww97w7711771w9973<>=<144",
"rww9wwww70wwetrr170wwrww6000ww0099w7779w77077777ww07310w7744",
"rww3wwwwrw997700090rrww90wwwww907707444999997799777<<<77<<44",
"99999w90w97770wr90www000wtwtww900099777779w9770071<<<<4<4470",
"7993797779werrwwwrww0909www09001www99777777733<73<<<771;7700",
"79ww710weeetrw07ww99999099990977977777144774<<<27<1777<<7744",
"9rrr00wtwww070wr0w999www900900799077779077773<1271<77777004,",
"rw7770ww774470rt900090wrw9900070ww777www79773222<3777777w004",
"w1>>1977779www71w00009rrww099771w71<479w77973222<<1<;;<74444",
"7747wrw9777790907009wwww7wwqqeq8<0997<<<2:#$$*22t4<44%&<<<47",
"><13737799ww99097790007949w8885277773<<<w82<2758w4<474<47000",
"<7074130www99777171777990wew855597<<<<<185,25872144447443777",
"70w9777077777771717709wwwwq8588797<<<731<---2822:>,>>4<:<<<4",
"7713711<<<447777w907w79982-2277501<<377<85278822444>,4,*<137",
"73;<<72<<<177997www7114482-278887<7707718877522-007774441317",
"71<1174737707773w97771772228825q<7773777522,-*-2w44774<73<7<",
";<73<<79909073<<111179we&-8q8228;131<<172722227e0::47><07770",
"747ww0797907797<77<7wrw72w9<<70<03<10w7*-17<<7974>>>4447,44,",
"7;;7747w97<*-707<<<3774<7qw37ww777779ww3<7034177:444,440400,",
";->;<<<7>;;<171>>;<1<<4727821w97<777373<170<<441>4444447*,>&",
">:;<<-****>490<-<177709w<272377<<37<<<>*<<3<114<44447044%%&%",
";<;>*-**4;>-;7777737099977777071777174<-;;,4477747440w7:,>,4",
"<<-@#>11<;<71110971<37<<13473<<;331<797;<;<097774744404%***4",
">;;*-<3<*;7w7-*<377<<<<7>;;<<;>-*<<<<11;1<<797<4>44>><>**%:,",
"%;71<1;@71<;*@-w;300149w;><<7<<<*<7<>>;<7<<31,#>&47>@%>%4,4w",
"1>;<<*#<&76@O:<&o$<2-*2227;*;;;7w744<;,177097<*@447<,4,%>><4",
"7<7<<7<;+>4*>5,+2222225722-*1<>,tw77<;<<ww01<177>,4::>>&#*>>",
"13<*;7;o,*%%,77,8727wq82;<-;97<<w4<<;><779099979:>>**>,>7177",
"***@#**o5>%>4700---2882*-<<<w9<<>*-;179w,47777<<>4<4>><,<<;>",
"#@@;;--<%%,0w4::$*--:<;-#<1787;7;><99wwt07<**-;1,4444>:,;>>-",
"<**<<@*5+&464***22<*&*;2@<777;>3737ww777371<;;;>>447<&&*;;;;",
"01-*#@@#*,:&+%:42<<---<7;7127<>7777971<<><7w97<><<44>%%:+@@#",
";;#o+>;#%,44:4:*$*-<2<;>0w7<07<394779770213<700w4<44>%*4@#->",
"&:,44,,&400:&:*%;<<<;****>;<77703790<<<737073447004,*&%.o&::",
">>>>,<454,,,44&o*=>**#*-13700999ww01;;19777<;;1704,:**%+o@:&",
">*%%*455***,4,%@*****<3933777707ww04<<39<1<;<<704**,4&*4<7<:",
">&%%%%&&%&,4&X@4<<<<<379<<<<31<179990779-;107337:+@,4*:4<4:+",
"&&&&&&XXO%:,%o%4<2<<<;--<<11777777990080;4777<<<>@@,4%%**,,>",
"%*,<-&XXooO&>::,#*--<<<;;<<77799w0041709w97<>><3,&%>*%++&>,,",
"X-,,-&%%@@@@&>>&*##*<417;;777009w9714700901;--17,>&%%%%@O%%o",
"XX&&+%&,%>>O.O:,01>****@777709w9<<709w97>;<;<179>>%O+%,****%",
"5&@,&+%4>+  +,0ww4%#*;;>7wew77773<;<1771464,406*+X.X,&%.*%+O",
"65-&@+&>,%oo&,44<*#*;77419w9744<w7>*-<1744**44,&:&X%6::%&&::",
"2,&X.@%+&%@%,44<**><7099wrw7771>w7;*-;<24,**:**&444:::6&::::",
"%&+X+%+O*%%*<4:%&>49wwwwte93474;7<;<<7<;4:*,,&%:444466:6<:&&",
"*OO*>@@*>:****@O@-30wwwwtw7><794<;<1777<4::44**,1611::464,&&",
",Oo&&OO>%%@%&**%+#;770907<-%>797<;;<7977,,44:::441116:>4,566",
"%@@%%++&oo@*>,<,**;<4717;<>-<714<<<177<>*444*::4111111>>&&,6",
".%,,>>*%%%:,,,-*11<<14<;<177<1>*><49w7-O&46:%&:*1>1===%@&&X&",
">>*%%=:*O#>1<<<>7<<77;<37>7447>4<37;::::%,66644:>7<%%+%:+X&X",
">*@O@*&@#%><<<<<737993100;4447,4237,:4&:,,6,:44*=4<%%%%:,::,",
">%Oo@*&@@*>;;<<1077007707,4<44>4255,:&:*6,&X&:-2*2<%*&%*66,,",
";:@@%>>&*->->;<731<777134*,>>4&,32544:*>&,:XX,56$<;***%*X&,,"
};
