/* XPM */
static char *left__2_1708950744[] = {
/* columns rows colors chars-per-pixel */
"60 60 211 2 ",
"   c None",
".  c #0E1516",
"X  c #0D161C",
"o  c #0E181E",
"O  c #151415",
"+  c #1A1615",
"@  c #1C1915",
"#  c #13161A",
"$  c #1C161A",
"%  c #14191D",
"&  c #1C1B1C",
"*  c #130F16",
"=  c #241B16",
"-  c #2B1D15",
";  c #221C1B",
":  c #251719",
">  c #391A16",
",  c #26211B",
"<  c #2B241C",
"1  c #2F2213",
"2  c #3B2415",
"3  c #332A1D",
"4  c #362718",
"5  c #37311E",
"6  c #0D1621",
"7  c #0D1922",
"8  c #1D1D21",
"9  c #131922",
"0  c #231B22",
"q  c #291F26",
"w  c #2D1F2A",
"e  c #1F2326",
"r  c #252323",
"t  c #2A2424",
"y  c #2C2924",
"u  c #262729",
"i  c #2C242B",
"p  c #2D2B2B",
"a  c #26292A",
"s  c #342C24",
"d  c #352D2A",
"f  c #3D3324",
"g  c #3D352B",
"h  c #3A362F",
"j  c #3B2A36",
"k  c #382A37",
"l  c #2F3233",
"z  c #353434",
"x  c #393532",
"c  c #3B3936",
"v  c #3D3C3C",
"b  c #353835",
"n  c #451819",
"m  c #691D1F",
"M  c #442517",
"N  c #593D18",
"B  c #47371A",
"V  c #433A2C",
"C  c #4A3C2C",
"Z  c #483825",
"A  c #412E3D",
"S  c #463B31",
"D  c #4A3E33",
"F  c #413C3B",
"G  c #662323",
"H  c #752326",
"J  c #664219",
"K  c #4D4333",
"L  c #49443D",
"P  c #514534",
"I  c #5B4D3B",
"U  c #554B38",
"Y  c #5E513C",
"T  c #504128",
"R  c #695234",
"E  c #3C3A40",
"W  c #4A3749",
"Q  c #563C53",
"!  c #50354B",
"~  c #643F60",
"^  c #444343",
"/  c #4B4944",
"(  c #4D4D4C",
")  c #524F4B",
"_  c #534F47",
"`  c #4F514D",
"'  c #55524D",
"]  c #5A4259",
"[  c #555352",
"{  c #585553",
"}  c #5B5956",
"|  c #5D5C5A",
" . c #575558",
".. c #645542",
"X. c #6B5A44",
"o. c #6F5D49",
"O. c #615E5A",
"+. c #74634A",
"@. c #746348",
"#. c #68635C",
"$. c #7C6A53",
"%. c #726453",
"&. c #634663",
"*. c #646364",
"=. c #696662",
"-. c #6C6B6B",
";. c #6D6B66",
":. c #716D6C",
">. c #74726F",
",. c #7A7B7C",
"<. c #787677",
"1. c #916D31",
"2. c #B17635",
"3. c #84735B",
"4. c #8A765B",
"5. c #8D7A5C",
"6. c #847357",
"7. c #927D5F",
"8. c #816D58",
"9. c #8C7A63",
"0. c #927C61",
"q. c #817C77",
"w. c #CB852E",
"e. c #958264",
"r. c #9B876A",
"t. c #86837F",
"y. c #9B8A71",
"u. c #A48E6E",
"i. c #A6916E",
"p. c #AB946D",
"a. c #AC9573",
"s. c #AF9A78",
"d. c #B29973",
"f. c #B59E7B",
"g. c #B49A76",
"h. c #BBA17B",
"j. c #BCA077",
"k. c #C3A77D",
"l. c #848382",
"z. c #898885",
"x. c #8E8C8B",
"c. c #888885",
"v. c #95928E",
"b. c #9A968E",
"n. c #959394",
"m. c #9A9A96",
"M. c #9D9C9B",
"N. c #919499",
"B. c #908D92",
"V. c #A19F9D",
"C. c #B69F81",
"Z. c #A8A69F",
"A. c #BFA784",
"S. c #A59FAD",
"D. c #A5A4A3",
"F. c #ADACAB",
"G. c #A9A9A5",
"H. c #B1AFAD",
"J. c #B1ADA3",
"K. c #B2B1AE",
"L. c #BEB6AD",
"P. c #B3B1B1",
"I. c #B9B6B5",
"U. c #BDBCBA",
"Y. c #BCB9B6",
"T. c #B2AFB0",
"R. c #C5AB83",
"E. c #CAAE83",
"W. c #CDB184",
"Q. c #CEB58A",
"!. c #D3B58A",
"~. c #DAB78C",
"^. c #D6B98A",
"/. c #DABA8C",
"(. c #D4B486",
"). c #DDBE91",
"_. c #DEC294",
"`. c #E3C28E",
"'. c #E5C592",
"]. c #EBC994",
"[. c #EDCC99",
"{. c #E7C794",
"}. c #F3CF99",
"|. c #F0CC94",
" X c #F5D39C",
".X c #FCD69C",
"XX c #FED99D",
"oX c #F5D097",
"OX c #EFD19F",
"+X c #C1C0BE",
"@X c #CDC9BE",
"#X c #F9D6A2",
"$X c #FEDBA1",
"%X c #C0BEC4",
"&X c #C4C3C2",
"*X c #CCCBCA",
"=X c #C9C7C8",
"-X c #D2CFCE",
";X c #D5D3CB",
":X c #D4D3D1",
">X c #D9D7D5",
",X c #DEDDDB",
"<X c #CED0CF",
"1X c #E1DEDD",
"2X c #E2E1DF",
"3X c #E0DEE0",
"4X c #E4E3E1",
"5X c #EAEAE9",
"6X c #E9E8E6",
"7X c #F0EFED",
"8X c #F4F5F3",
/* pixels */
"                                                                                                                        ",
"                                                                                                                        ",
"                                                                                                                        ",
"                                                                                                                        ",
"                                                                                                                        ",
"                                                                                                                        ",
"                                                                                                                        ",
"                                                                                                                        ",
"                                                                                                                        ",
"                                                                                                                        ",
"                                                                                                                        ",
"                                                                                                                        ",
"                                                    X % e l v ^ ^ ^ b a % X                                             ",
"                                              7 % z -.V.=X,X5X5X5X6X,X*XG.<.^ 8 .                                       ",
"                                            7 ^ m.,X8X8X5X6X6X4X2X2X2X4X6X6X>XD.` & o         # 8 a a % 9               ",
"                                        X u l.1X8X5X4X1X,X,X,X,X,X,X,X,X,X,X1X2X<Xz.z X     % ` Z.U.U.v.L 9             ",
"                                      X b P.7X6X,X,X,X,X,X,X,X,X,X,X,X,X,X,X,X,X,X1XY.( # O + ,.1X2X2X,XG.c o           ",
"                      7 % 8 & 7     7 c U.5X,X,X,X,X,X,X1X3X,X,X,X,X,X,X,X,X,X,X,X,X2X*X/ : n t Z.*Xz.' g , #           ",
"                    o l c.H.m.( % 9 u F.4X,X,X2X,X,X>X*XI.V.&X1X,X,X,X,X,X,X2X,X,X,X,X1XD.: G n L } 4 R 1.V O %         ",
"                    r D.<X=X<X=X) O -.1X2X,X<XY.n.>.` z r + [ -X1X,X,X,X,X,X,X,X,X,X,X1X>X' > H : p s Z f z p 9         ",
"                  X { &XF.v.n.I.M.& z.&Xn.=.c , = s P o.7.%.; <.,X,X,X,X,X,X,X,X,X,X,X,X,XM.= H n d  .*.l.m.^ X         ",
"                  o :.K.#.r u ^  .8 p p , f Y 4.a.E.).[.oX)..., M.,X,X>X,X,X<X+X>X1X:X=X,X%Xc n m t m.P.P.v.r           ",
"                  X -.M.a 7   9 # + g +.i.W.`.].oX.X#XXXXX XR.Z z F.>X+X-X,X*XF.Y.>X&XK.U.+X;.: G : t.K.M.^ #           ",
"                  X ' c.8       9 s A.{.[. X.X.XXXXXXXXXXXXX[.i., [ K.K.I.>X=XH.K.U.Y.K.K.K.v.r n : { :.x #             ",
"                  7 p ;.8       X X..X.XXXXXXXXXXXXXXXXXXX.X.X(.g ^ F.P.H.U.U.F.H.K.K.H.K.K.G.v O % & # X               ",
"                    % y &       . e.XXXXXXXXXXXX.XXX.XXXXX.X.Xk.3 | P.P.H.H.H.F.P.F.K.H.H.K.K. .%                       ",
"                      7 # %     + a.$XXXXXXXXX$XXXXX.XXXXX.X.Xa.= <.P.F.K.K.D.Z.D.K.H.H.H.H.K.*.#                       ",
"                        7 7     @ h.$XXX#X_.h.p.p.W.oXXX.X.X Xr.; l.P.P.M.| F v v >.F.P.H.H.P.>.#                       ",
"                                @ h.XXh.X.f 5 Y e.j.].XX.XXX}.e.; x.P.D.^ U 9.e.9.d ,.H.H.F.P.>.#                       ",
"                                % j.d.3 K e.!.OXXXXXXXXX.XXX{.e.= z.P.O.S u.P f 8.6.F D.P.H.K.*.#                       ",
"                                . u.k.u.s.5.o...@.E.XXXXXX.X`.i.= ,.l.@ %._ ..e.s y.g n.K.H.H.` .                       ",
"                                . e.XXe.s y z #.=.V !.XX.X X`.h.< | F @ 4.5 9.E.C r.V x.P.K.D.z o                       ",
"                                X +._.V } / ;.=.*X#.@..XXX.X'.k.Z u ; 3 g.$.f C.g.u.g m.T.H.z.;                         ",
"                                o U R.h { y t.' K.J.K ].XX.X|.^.Y O t r.E.8.s f.!...[ F.P.H.[ #                         ",
"                                X K R.h | @ { { J.I.h {.XXXX.X].6.* I ^.R.@.e.!.$.t B.P.K.x.r                           ",
"                                . U _.K >.( ) #.>Xt.I  X.X.X.X Xp.= 4./.~./.Q.+.+ ^ J.P.D.^ #                           ",
"                                X ..#X4./ Z.c.J.G.g p.$X.XXX.XXXk.C g././.W.R g , { T.F.| O                             ",
"                                X X.$X_.I V L L S 5. XXXXXXX.X.X/.5.W.~./.k.7.h.D v D.O.&                               ",
"                                7 K [.XX[.(.W.(.'..XXXXXXX.XXX X/.W./.~././././.+.e ^ +                                 ",
"                                  & e. X$XXXXXXXXXXX.XXX.XXX X]./././.^././.~.a.L # #                                   ",
"                                  7 ; X.f.'. XXX$X$X$XXX.XoX`././.^.^.W.h.5.U , # o                                     ",
"                                      # ; g ..6.r.p.d.d.p.i.u.r.5.$...S < + y a                                         ",
"                                            X . O + $ $ ; $ $ @ + O + + O 3 V y                                         ",
"                                                  # O t A A w $ i q : y @ T 1.1.r                                       ",
"                                                o x / $ W ! 0 0 Q W 0 q i @ B Z                                         ",
"                                                X ) J.r k W : W ] Q k : k $ x u                                         ",
"                                                7 , L.q.$ i 8 ! ~ Q k $ j 0 t r                                         ",
"                                                % + #.@X_ * 0 ] &.] W 0 8 @ + #                                         ",
"                                                + , & b.@Xh E %X%XS.B.z < Z @ #                                         ",
"                                              9 O O O y J.#.u ,.N.,. .t @ = + 9                                         ",
"                                              $ J J N 2 y x : s i y s $ c b.v X                                         ",
"                                              = 1.w.w.2.B * S a.a.p.a.D h ;.r 9                                         ",
"                                              + - - 2 2 1 + D {. XoX{.K O @ $                                           ",
"                                              & p k k k j i $ 6.!.R.+.@ t i $                                           ",
"                                              9 & 0 0 q i q + + t , + + + % %                                           ",
"                                                  7 + + O + ; q t r r + #                                               ",
"                                                    + = - : : ; 0 ; = +                                                 ",
"                                                    % > M = = 2 M M - #                                                 ",
"                                                    % @ - @ : 2 M 2 @                                                   ",
"                                                                                                                        "
};
