/* XPM */
static char *penguin_removebg_preview__1_1708948337[] = {
/* columns rows colors chars-per-pixel */
"60 60 102 2 ",
"   c None",
".  c #202323",
"X  c #262727",
"o  c #2B2B2E",
"O  c gray18",
"+  c #2F2F2F",
"@  c #2E3131",
"#  c #313332",
"$  c #323433",
"%  c #323336",
"&  c #343637",
"*  c #373637",
"=  c #363737",
"-  c #33373A",
";  c #36383A",
":  c #373A3B",
">  c #31393D",
",  c #333B3E",
"<  c #383939",
"1  c #3A3A3A",
"2  c gray23",
"3  c #393A3C",
"4  c #3B3C3C",
"5  c #51411D",
"6  c #5A461E",
"7  c #564C32",
"8  c #574C38",
"9  c #333C43",
"0  c #454547",
"q  c #485053",
"w  c #515150",
"e  c #505154",
"r  c #5A5B5C",
"t  c #646566",
"y  c #636768",
"u  c #6D6D6E",
"i  c #6C6E70",
"p  c #6E6F71",
"a  c #6A7273",
"s  c gray50",
"d  c #9C7518",
"f  c #B4821C",
"g  c #EEAC09",
"h  c #F9B306",
"j  c #F9B108",
"k  c #E7A610",
"l  c #EFAB1E",
"z  c #F3A610",
"x  c #F1A713",
"c  c #F5AF12",
"v  c #F1B11A",
"b  c #80807F",
"n  c #C1A45F",
"m  c #EEB573",
"M  c #F0C462",
"N  c #7E7F81",
"B  c #7C8082",
"V  c #8B8B8B",
"C  c #8D8D8D",
"Z  c #8E9092",
"A  c #87909E",
"S  c #939696",
"D  c #9A9B9A",
"F  c #8D97A3",
"G  c #9CA2A3",
"H  c #A6ABB1",
"J  c #ACB0B7",
"K  c #B1B1B0",
"L  c #B2B3B4",
"P  c #B9BAB9",
"I  c #BBBCBB",
"U  c #D7CBA7",
"Y  c #CDC8BB",
"T  c #F0D8B7",
"R  c #F7E3B4",
"E  c #C2C2C3",
"W  c #C6C7C7",
"Q  c gray78",
"!  c #C3C7C9",
"~  c #CCCCCB",
"^  c #CECECE",
"/  c #DAD8CB",
"(  c #CFD3D7",
")  c #D0D3D5",
"_  c #D5D4D4",
"`  c gray86",
"'  c #DCDEDB",
"]  c #E1E4E7",
"[  c #E6E6E6",
"{  c #E7E7E7",
"}  c #E6E9EB",
"|  c #EAEFEE",
" . c #EEEEEE",
".. c #F1F1F1",
"X. c #FEFBF3",
"o. c #FBFAFA",
"O. c #FDFCF8",
"+. c #FAFCFD",
"@. c #FDFDFD",
"#. c #FFFFFC",
"$. c #FEFEFE",
"%. c white",
/* pixels */
"                                                                                                                        ",
"                                                                                                                        ",
"                                                                                                                        ",
"                                                                                                                        ",
"                                                                                                                        ",
"                                                                                                                        ",
"                                                                                                                        ",
"                                                                                                                        ",
"                                                                                                                        ",
"                                                                                                                        ",
"                                                                                                                        ",
"                                                                                                                        ",
"                                                                                                                        ",
"                                                                                                                        ",
"                                                                                                                        ",
"                                                                                                                        ",
"                                                                                                                        ",
"                                                                                                                        ",
"                                                                                                                        ",
"                                                                                                                        ",
"                                                                                                                        ",
"                                                                                                                        ",
"                                                                                                                        ",
"                                                                                                                        ",
"                                                                                                                        ",
"                                                                                                                        ",
"                                                                                                                        ",
"                                                                                                                        ",
"                                                                                                                        ",
"                                                                                                                        ",
"                                                                                                                        ",
"                                                                                                                        ",
"                                                                                                                        ",
"                                                                                                                        ",
"                                                                                                                        ",
"                                                                                                                        ",
"                                                                                                                        ",
"                                                                                                                        ",
"                                                                                                                        ",
"                                                                                                                        ",
"                                                        9 > >                                                           ",
"                                                        0 1 1 3                                                         ",
"                                                      G ~ w s P q                                                       ",
"                                                      ! ^ V K ( B                                                       ",
"                                                      J A Z H F S                                                       ",
"                                                      } / n U ] '                                                       ",
"                                                      +.R x M #.|                                                       ",
"                                                      u Y m T P a                                                       ",
"                                                @ # * 4 W X.#.D $ ; * -                                                 ",
"                                                  . X 1 _ %.%.K + + o                                                   ",
"                                                      r [ %.%.~ ;                                                       ",
"                                                      V o.%.%.[ y                                                       ",
"                                                      C %.%.%...p                                                       ",
"                                                      t  .%.%.` q                                                       ",
"                                                      * N W E p *                                                       ",
"                                                      d 5 8 7 6 f                                                       ",
"                                                    c h k     g j                                                       ",
"                                                      z       v l                                                       ",
"                                                                                                                        ",
"                                                                                                                        "
};
