/* XPM */
static char *ping1708950965[] = {
/* columns rows colors chars-per-pixel */
"60 60 135 2 ",
"   c None",
".  c #181D1E",
"X  c #1F2123",
"o  c #1E2B30",
"O  c #222324",
"+  c #2D2B27",
"@  c #232628",
"#  c #27282C",
"$  c #2B2B2B",
"%  c #302F2E",
"&  c #332B24",
"*  c #343128",
"=  c #262A32",
"-  c #282D30",
";  c #263237",
":  c #2F3334",
">  c #2F3538",
",  c #333434",
"<  c #383537",
"1  c #353837",
"2  c #393837",
"3  c #33373A",
"4  c #383739",
"5  c #35393A",
"6  c #3A393A",
"7  c #4A3B24",
"8  c #3E413F",
"9  c #55401C",
"0  c #41403F",
"q  c #263B45",
"w  c #2A3C44",
"e  c #363D42",
"r  c #3A3D40",
"t  c #3A424A",
"y  c #434343",
"u  c #474847",
"i  c #414749",
"p  c #484748",
"a  c #4A4A49",
"s  c #545654",
"d  c #595A5A",
"f  c #6A6048",
"g  c #475264",
"h  c #4E5A6B",
"j  c #515970",
"k  c #546475",
"l  c #646565",
"z  c #6C6C6C",
"x  c #727374",
"c  c #757C7D",
"v  c #7A7A78",
"b  c #8B660F",
"n  c #8A6614",
"m  c #986D12",
"M  c #9E7613",
"N  c #A5721F",
"B  c #A27A2C",
"V  c #A58428",
"C  c #B98B20",
"Z  c #D39A0D",
"A  c #ED8D17",
"S  c #DEA410",
"D  c #F3AB07",
"F  c #F5AC0C",
"G  c #F9A90A",
"H  c #FCB504",
"J  c #FEB904",
"K  c #FAB40E",
"L  c #FCB80B",
"P  c #EDA612",
"I  c #E3A718",
"U  c #EBA81F",
"Y  c #EBA21B",
"T  c #F0A414",
"R  c #F5AD12",
"E  c #DD8C2A",
"W  c #DFAC35",
"Q  c #EDA824",
"!  c #E6A22E",
"~  c #EDAB2B",
"^  c #E4AA2C",
"/  c #ECB123",
"(  c #F0B520",
")  c #E8A332",
"_  c #E9B73B",
"`  c #F2BC32",
"'  c #928B7A",
"]  c #E0A955",
"[  c #EEA766",
"{  c #F0C96F",
"}  c #768186",
"|  c #8B8987",
" . c #858689",
".. c #8A8B8B",
"X. c #888F91",
"o. c #939392",
"O. c #9C9B9B",
"+. c #8E96A0",
"@. c #8F9AA5",
"#. c #9FA1A1",
"$. c #9FA7B0",
"%. c #A5A6A5",
"&. c #A9A8A7",
"*. c #A0ACB1",
"=. c #ABB3BB",
"-. c #B7B6B7",
";. c #B3B7B8",
":. c #B3B9BE",
">. c #EBCF93",
",. c #EFCC9E",
"<. c #F2D994",
"1. c #F5E5B4",
"2. c #B7BDC6",
"3. c #BAC1CA",
"4. c #BECCD1",
"5. c #C2C2C3",
"6. c #C0C9C5",
"7. c #CACBCA",
"8. c #D6D7D6",
"9. c #DDDEDD",
"0. c #DEE1DF",
"q. c #F5E4C8",
"w. c #E5E3DD",
"e. c #F3EDD5",
"r. c #DDDFE2",
"t. c #E4E4E5",
"y. c #E4E8EE",
"u. c #EAECEC",
"i. c #FAF6E5",
"p. c #F5F4EE",
"a. c #EFF0F0",
"s. c #F5F5F4",
"d. c #F7F9F5",
"f. c #FCFCF6",
"g. c #FDFEFD",
/* pixels */
"                                                                                                                        ",
"                                                                                                                        ",
"                                                                                                                        ",
"                                                                                                                        ",
"                                                                                                                        ",
"                                                                                                                        ",
"                                                                                                                        ",
"                                                                                                                        ",
"                                                                                                                        ",
"                                                                                                                        ",
"                                                                                                                        ",
"                                                                                                                        ",
"                                                                                                                        ",
"                                                                                                                        ",
"                                                                                                                        ",
"                                                                                                                        ",
"                                                                                                                        ",
"                                                                                                                        ",
"                                                                                                                        ",
"                                                                                                                        ",
"                                                                                                                        ",
"                                                                                                                        ",
"                                                                                                                        ",
"                                                                                                                        ",
"                                                                                                                        ",
"                                                                                                                        ",
"                                                                                                                        ",
"                                                                                                                        ",
"                                                                                                                        ",
"                                                                                                                        ",
"                                                                                                                        ",
"                                                            q w q                                                       ",
"                                                      t 5 5 5 6 5 3 ;                                                   ",
"                                                    t , , 1 1 6 6 , , =                                                 ",
"                                                    s o. .y 4 6 y x z ,                                                 ",
"                                                    ;.g.g.o.4 6 O.g.s.o.o                                               ",
"                                                  } t.9.9.8.y s t.9.r.r.i                                               ",
"                                                  X.t.+.*.r.s v u.$.@.u.l                                               ",
"                                                  c t.j h r.d ..y.g k y.z                                               ",
"                                                  :.s.2.2.w.f ' s.=.3.g.7.                                              ",
"                                                  g.g.d.e.{ I W 1.p.d.g.s.6.                                            ",
"                                                  g.g.g.<.P H D _ i.g.g.u.                                              ",
"                                                    7.u.e.] A E >.p.s.0.4.                                              ",
"                                        3 , , > 3 < 0 z 9.q.[ ,.p.u...s 5 w                                             ",
"                                    3 , , 1 1 1 4 1 , x s.g.i.d.f.g..., , 1 5 3 4 4 4 w                                 ",
"                                        O @ $ , 4 1 % | g.g.g.g.g.g.%.* 4 5 6 6 , % , e                                 ",
"                                            . O O O $ o.g.g.g.s.g.g.3.* # * $ $ @                                       ",
"                                                  X , -.g.g.s.g.s.g.t.a X @ @ -                                         ",
"                                                    d t.g.g.g.g.g.g.d.x 3                                               ",
"                                                  , ..g.g.g.g.g.g.g.g.%.>                                               ",
"                                                  , &.g.g.g.g.g.g.g.g.5.e                                               ",
"                                                  , O.g.g.g.g.g.g.g.g.7.r                                               ",
"                                                  , l a.g.g.g.g.g.g.g.O.,                                               ",
"                                                  , 6 o.s.g.g.g.g.f.5.p :                                               ",
"                                                  # , 6 z %.5.7.-.| p , >                                               ",
"                                                  C 9 + X & 6 8 % X $ 7 B                                               ",
"                                              / K J S M b N     V n m Z F T )                                           ",
"                                                R J J J K ~     ` L J J J F !                                           ",
"                                                Y F D G Q         ( H F R Q                                             ",
"                                                      !             ^                                                   "
};
