/* XPM */
static char *right__2_1708950744[] = {
/* columns rows colors chars-per-pixel */
"60 60 216 2 ",
"   c None",
".  c #0D161B",
"X  c #0E181D",
"o  c #0A1217",
"O  c #151514",
"+  c #1A1615",
"@  c #1B1916",
"#  c #13161B",
"$  c #13191D",
"%  c #1C1B1B",
"&  c #181716",
"*  c #1F170F",
"=  c #231615",
"-  c #231B15",
";  c #2C1C15",
":  c #211C1B",
">  c #27171A",
",  c #371817",
"<  c #1F211F",
"1  c #25221D",
"2  c #28211D",
"3  c #2C2316",
"4  c #372617",
"5  c #0E1722",
"6  c #0D1A22",
"7  c #121A21",
"8  c #1A1D22",
"9  c #131A25",
"0  c #231C22",
"q  c #2A1F26",
"w  c #1D2122",
"e  c #17262C",
"r  c #0C2535",
"t  c #242324",
"y  c #2B2524",
"u  c #2D2926",
"i  c #2C2329",
"p  c #2D2B2B",
"a  c #262929",
"s  c #332B23",
"d  c #322E2D",
"f  c #352926",
"g  c #3D3225",
"h  c #34312E",
"j  c #3D342A",
"k  c #3C372B",
"l  c #2F2E30",
"z  c #352935",
"x  c #392936",
"c  c #333333",
"v  c #3A3633",
"b  c #3D3C3C",
"n  c #3E3936",
"m  c #4E1B1D",
"M  c #521B1B",
"N  c #681F1D",
"B  c #452916",
"V  c #43321E",
"C  c #4D3316",
"Z  c #53381B",
"A  c #403629",
"S  c #43392A",
"D  c #4B3E2E",
"F  c #423426",
"G  c #443D33",
"H  c #423D3A",
"J  c #493E34",
"K  c #432C3E",
"L  c #742223",
"P  c #6C2120",
"I  c #61411C",
"U  c #744F1E",
"Y  c #4C4234",
"T  c #45413F",
"R  c #504434",
"E  c #554A39",
"W  c #5B4C3A",
"Q  c #544836",
"!  c #5A513B",
"~  c #59482B",
"^  c #694620",
"/  c #725631",
"(  c #483546",
")  c #513A4E",
"_  c #533C52",
"`  c #5B3D58",
"'  c #454343",
"]  c #4D4B4A",
"[  c #4B4946",
"{  c #53524E",
"}  c #594759",
"|  c #555452",
" . c #595553",
".. c #5B5B59",
"X. c #5A5957",
"o. c #514E48",
"O. c #6B5C43",
"+. c #6D5E4A",
"@. c #635642",
"#. c #615E5A",
"$. c #64405E",
"%. c #6C604B",
"&. c #74634C",
"*. c #7B6A4F",
"=. c #63625C",
"-. c #7B6952",
";. c #756651",
":. c #615F62",
">. c #654A64",
",. c #636363",
"<. c #6E6C6C",
"1. c #696766",
"2. c #74706E",
"3. c #78726F",
"4. c #7A7A79",
"5. c #797875",
"6. c #706E6B",
"7. c #87632F",
"8. c #85745C",
"9. c #8B795B",
"0. c #897457",
"q. c #907B5C",
"w. c #816F52",
"e. c #8C7A62",
"r. c #917E62",
"t. c #827E7D",
"y. c #BD8131",
"u. c #CE862F",
"i. c #D28A2D",
"p. c #97835F",
"a. c #968263",
"s. c #9A8565",
"d. c #9C896B",
"f. c #9B8767",
"g. c #86827F",
"h. c #A48C6D",
"j. c #AB936B",
"k. c #AB9473",
"l. c #AD9875",
"z. c #B29975",
"x. c #B39B78",
"c. c #B09674",
"v. c #A78E71",
"b. c #BCA37B",
"n. c #B9A177",
"m. c #C3A67C",
"M. c #C1A87C",
"N. c #807F81",
"B. c #8B8786",
"V. c #8A8985",
"C. c #8C8B8B",
"Z. c #848686",
"A. c #928E8C",
"S. c #95928D",
"D. c #959492",
"F. c #9A9996",
"G. c #9F9C9B",
"H. c #9A9598",
"J. c #A29F9B",
"K. c #BDA380",
"L. c #A2A19C",
"P. c #A5A4A2",
"I. c #A9A6A5",
"U. c #AAAAA7",
"Y. c #ADACAB",
"T. c #B1AFAD",
"R. c #AFB0AE",
"E. c #B2B1AE",
"W. c #B2AEB3",
"Q. c #B3B2B2",
"!. c #BCBCBA",
"~. c #B8B6B9",
"^. c #AEAFB0",
"/. c #CBAE84",
"(. c #C9AD89",
"). c #CCB187",
"_. c #CCB189",
"`. c #D4B68B",
"'. c #DABA8B",
"]. c #D7B789",
"[. c #D9BD91",
"{. c #E1BC8D",
"}. c #DEC18F",
"|. c #E3C38F",
" X c #E4C492",
".X c #EBCA95",
"XX c #EDCD9B",
"oX c #F1CE99",
"OX c #F2CD95",
"+X c #F4D29B",
"@X c #FCD79C",
"#X c #FED89D",
"$X c #F5D197",
"%X c #C3C1BF",
"&X c #FED7A1",
"*X c #FEDBA0",
"=X c #F7D7A1",
"-X c #EFD1A1",
";X c #BEC1C2",
":X c #C5C3C2",
">X c #CECDCB",
",X c #C9C7C6",
"<X c #D5D4D2",
"1X c #DAD8D5",
"2X c #DEDDDB",
"3X c #D9D7D5",
"4X c #D1CFD2",
"5X c #E0DFDD",
"6X c #DFE0DF",
"7X c #E1E0DE",
"8X c #E0DFE0",
"9X c #DEE3E0",
"0X c #E5E4E3",
"qX c #EBE9E9",
"wX c #F0EFEE",
"eX c #F5F4F3",
/* pixels */
"                                                                                                                        ",
"                                                                                                                        ",
"                                                                                                                        ",
"                                                                                                                        ",
"                                                                                                                        ",
"                                                                                                                        ",
"                                                                                                                        ",
"                                                                                                                        ",
"                                                                                                                        ",
"                                                                                                                        ",
"                                                                                                                        ",
"                                                          . o o .                                                       ",
"                                                  . 8 l ' X.:.,.:.{ b a $ o                                             ",
"                                            5 8 b 4.^.<XqXwXeXeXeXwX0X>XP.<.c X                                         ",
"                    7 $ l b c 8 7         $ b D.<X0X0X6X6X2X8X2X5X0X0XwXeXeX3XC.c .                                     ",
"                  7 c V.:X4X:XD.c 5   5 t 5.,X5X2X2X2X2X2X2X2X2X2X2X2X2X2X7XqXeX<X1.8                                   ",
"                9 @ <.;X1X5X0XW.h + # c J.2X2X2X2X2X2X2X2X2X2X2X2X2X5X2X2X2X2X5XqXqXV.w                                 ",
"                9 @ f v  .D.:X' , , t L.0X2X2X2X2X2X2X2X2X2X2X2X2X7X7X7X2X2X2X2X2X2XqXC.8     6 % p a $                 ",
"                & - / 7.~ y  .; P , ,.1X2X2X2X2X2X2X2X2X2X2X2X2X<XC.A.Y.:X<X2X7X8X2X2X2X<.$ 7 c D.;X~.2.w               ",
"                w ' j V F 2 1 M N y E.5X2X2X2X2X2X2X2X2X2X2X2X2XB.@ 1 2 p ' 1.C.T.>X3X0X:Xd t I.<X:X:X>X1.$             ",
"                % g.L.Z.2.| = L ,  .3X5X2X2X2X1X3X2X2X2X2X2X7XY.u E l.s.;.W g 1 2 n ,.D.^.c X.~.D.4.A.~.P.t             ",
"                5 ] Y.Q.W.| , L = B.1X>X:X2X2X:X%X2X2X3X2X2X:X' f n.oX$X.X|._.x.e.@.g : t % h H t $ u C.I.d             ",
"                  8 1.I.U.b m m x I.!.E.E.<X:XT.!.3X3X!.,X,X..- s..X&X#X#X#X@X$X.X{./.v.&.u O 5     . ..J.p             ",
"                    % H =.t , = ..E.E.E.E.!.E.E.E.<X%XR.Q.V.% %.'.@X&X#X#X#X#X#X#X#X@XoX.X0.#       X ] Z.%             ",
"                      X $ $ % % g.Q.T.E.E.Y.R.R.E.!.Q.Y.E.V.% e..X#X*X#X#X#X#X#X#X#X#X#X#X/.t       $ ' ] $             ",
"                            e a D.R.T.E.E.E.E.R.E.E.R.E.E.F.y &..X#X#X#X#X#X#X#X#X#X#X#X#X Xk 5     7 0 $               ",
"                            9 l L.E.Y.E.Y.E.P.D.D.P.E.R.E.P.v W  X#X#X#X#X#X#X#X#X*X#X#X#X$XR #     $ 7                 ",
"                            9 c P.E.E.E.W.C.T k k H <.U.R.U.T D '.@X#X#X@X|.j.q.9.j.].+X*X+X! .   r 6                   ",
"                            7 c P.E.T.E.G.v &.d.r.e.j <.R.Y.] S `.+X#X#X#X|.b.f./ k 4  .M.oX! .                         ",
"                              a J.T.E.E.<.Y d.A g %.e.s C.Y.T D `.$X#X#X#X*X*X+XXX`.f.R g ).E #                         ",
"                              w A.Q.T.T.| ;.+.@.l.j 8.s b F.v W '.oX#X#X#X+Xa.R Y ! *.l.l.[.G .                         ",
"                              & 6.E.T.T.] -.O.9.K.j +.E & #.u %.'..X#X@X@Xa.S A...k h s j. Xs                           ",
"                              $ ' Y.Y.Q.,.W K.(.O.R b.-.+ 0 - r.'.oX#X#X|.S L.T. .V.X.{ ! M.1                           ",
"                                w V.Q.E.D.h a.'.&.A h._.+.+ 2 l. X#X#X#Xm.G <Xg.T o.u  .W h.<                           ",
"                                $ [ I.T.T...s v./.9.h.'.c.- F /.$X#X#X#XM.G 3XB.=.T y #.! f.$                           ",
"                                  % 2.T.E.V.: s s.'.'.'./.S W .X#X#X#X#X'.S U.%X=.o.3. .w.z.%                           ",
"                                  $ t Z.E.S.1 G F s.'.].'.&.w.$X#X#X#X#X@X0.Y L.F.V.V.k /.).1                           ",
"                                    5 a N.4.- f.z.x.'.].'.z.z.OX#X#X#X#X#XXX0.Y Y Y Y a.@Xm.1                           ",
"                                      $ t d s /.{.'.'.'.'.`.]..X#X#X#X#X#X#X@X.X|.|..X=X#Xa.#                           ",
"                                          . : O.x.].'.'.'.'.'.'.OX@X#X#X#X#X&X#X#X#X*X@Xm.g 5                           ",
"                                            9 # y W 9.z.(.`.'.'.'. XoX#X*X#X#X@X+X|.n.*.y #                             ",
"                                                  X & 2 g E O.;.8.9.q.9.r.q.w.&.E j % O                                 ",
"                                                    9 & 0 & O O & + 2 s + O # o o                                       ",
"                                                    # H  .@ z q + O h g.2.%                                             ",
"                                                  X p S.z i _ _ 0 % 0 0 ..H .                                           ",
"                                                  & 5.#.O ( ` } i q ) x @ % &                                           ",
"                                                5 b 5.@ 9 ( ` $.( + ) ` ( y &                                           ",
"                                                # =.k * a _ ` >.) % > q 0 0 #                                           ",
"                                                t o.@ + | H.~.4XW.q Z U U ^ 4 $                                         ",
"                                              7 % 1 @ @ l X.4.C.:.& Z U U Z 4 &                                         ",
"                                              # & - V + y f s u y + 3 C C Z I 2                                         ",
"                                              $ & C / - e.n.l.x.r.: 7.i.u.u.y.Z .                                       ",
"                                              0 & : = = f.+XoX=Xk.+ 4 B 4 4 ; * $                                       ",
"                                            8 d + y z : g s.`.b.J = z x d x x : X                                       ",
"                                            w H 1 % % + O + 0 : O : i i q q 8 & 6                                       ",
"                                            w ( b y # $ + % : : % & O + O $                                             ",
"                                              p u 8     # - > ; : + = , = 7                                             ",
"                                                        O 4 B B 4 * 3 B -                                               ",
"                                                        # - , 4 ; + + > #                                               ",
"                                                          X & & + #                                                     "
};
