/* XPM */
static char *trap_removebg_preview1709045073[] = {
/* columns rows colors chars-per-pixel */
"60 60 109 2 ",
"   c None",
".  c #208A9D",
"X  c #28A393",
"o  c #169CB4",
"O  c #1A9BB2",
"+  c #129FB9",
"@  c #2294A7",
"#  c #16A2BB",
"$  c #1AA3BB",
"%  c #1FBCB0",
"&  c #1BBCB8",
"*  c #29A1B6",
"=  c #24A6BC",
"-  c #20BDB6",
";  c #53A6B3",
":  c #56AAB9",
">  c #5CADB9",
",  c #5CB2BF",
"<  c #2EDD94",
"1  c #32E794",
"2  c #28CCAD",
"3  c #39D3A0",
"4  c #3ADCA2",
"5  c #4ADB90",
"6  c #53E395",
"7  c #5BEC9F",
"8  c #46DDBC",
"9  c #6FEEA7",
"0  c #71ECAB",
"q  c #6BF3A5",
"w  c #68F0AF",
"e  c #76F4AC",
"r  c #7BF8B0",
"t  c #0DA9C6",
"y  c #09ADCA",
"u  c #13A7C1",
"i  c #15AAC4",
"p  c #1AABC4",
"a  c #14AECA",
"s  c #19AFC9",
"d  c #0FB0CF",
"f  c #14B3CE",
"g  c #1AB3CD",
"h  c #1EBCC9",
"j  c #0EB5D3",
"k  c #0FB9D7",
"l  c #0EBCDB",
"z  c #13B5D1",
"x  c #19B6D1",
"c  c #15B9D5",
"v  c #19BAD5",
"b  c #14BDDA",
"n  c #2BB0C7",
"m  c #0BBFE0",
"M  c #41AFC2",
"N  c #5EB4C3",
"B  c #58BBCB",
"V  c #65BBCA",
"C  c #1ACFCE",
"Z  c #1CD2CE",
"A  c #0FC2DC",
"S  c #1BC8D5",
"D  c #14C1DE",
"F  c #1FC3DE",
"G  c #3ED7C1",
"H  c #3DC3D9",
"J  c #0AC3E4",
"K  c #0CCBEC",
"L  c #12C3E2",
"P  c #16C8E6",
"I  c #11CAEA",
"U  c #0CCFF0",
"Y  c #0CD2F4",
"T  c #0BD6FA",
"R  c #0AD9FD",
"E  c #1FDCFC",
"W  c #2DC8E2",
"Q  c #27D4F1",
"!  c #21DCFC",
"~  c #2ADDFC",
"^  c #36DFFC",
"/  c #3AE0FC",
"(  c #4AC3D6",
")  c #5DC9DA",
"_  c #65C1D2",
"`  c #6AC6D5",
"'  c #61CCDE",
"]  c #6ECBDB",
"[  c #71CFDE",
"{  c #57D0E4",
"}  c #58D3E7",
"|  c #45DDF7",
" . c #4BDEF6",
".. c #49DFF8",
"X. c #64D3E5",
"o. c #6ED2E2",
"O. c #64D6E9",
"+. c #66DAEE",
"@. c #73D2E3",
"#. c #7ADBEC",
"$. c #49E2FB",
"%. c #6AE1F5",
"&. c #63E3F8",
"*. c #6CE7FC",
"=. c #6CE8FD",
"-. c #7EE3F3",
";. c #78EAFD",
":. c #81E5F7",
">. c #85EBFD",
/* pixels */
"                                                                                                                        ",
"                                                                                                                        ",
"                                                                                                                        ",
"                                                                                                                        ",
"                                                                                                                        ",
"                                                                                                                        ",
"                                                                                                                        ",
"                                                                                                                        ",
"                                                                                                                        ",
"                                                                                                                        ",
"                                                                                                                        ",
"                                                                                                                        ",
"                                                                                                                        ",
"                                                                            * a $ p p s                                 ",
"                                                                          z a l J k i l l                               ",
"                                                                        $ K U K J J l f J l                             ",
"                                                                      I Y T R T K g # # J J f                           ",
"                                                                      Y R T R I         b T K                           ",
"                                                                      I R T I           L T T v                         ",
"                                                                  x P T R Y           W / / ~ F                         ",
"                                                                  b R R R b             %.*.=.{                         ",
"                                                                    Y R U               O.=.=.X.                        ",
"                                                                  v Y R L             +.*.*.=.X.                        ",
"                                                                F R R T x             ) *.=.*.X.                        ",
"                                                                s T R Y               B %.*.*.X.                        ",
"                                                                p Y R I             ( &.*.*.*.'                         ",
"                                                              b T R R P               Q / $.$.H                         ",
"                                                          p   i Y Y Y v               b R R T x                         ",
"                                            =     $ $   $ z $ i A J J               L Y R R T                           ",
"                                p     b p   P z   L m   $ x 1 8 S J J               g T R R K                           ",
"                                I = g T P z R U b T U j a z 2 7 w G h               p I K K c                           ",
"                          O   b R U I R R R R R R R U J m z i X 6 q 0             O l J J J z                           ",
"                          i L U R R R R R R R R R T K J J J z       7 e e           p J J J g                           ",
"                          i U R R R R R Y Y P L b x i o # o O         5 9 r 9     i O k J J $                           ",
"                        O t m T T K L v                                   6 q 3 l D i d J l                             ",
"                        o y y k g                                             - Z 1 % j J l                             ",
"                        o y #                                                 v C < & j J z                             ",
"                        p + . @                                               b K l l # i                               ",
"                        a O o f                                               L U J l                                   ",
"                        a d k l     v g     >       >       N       ] :   s x b K J J                                   ",
"                        $ J J A O   Y D     @.,     @.V     @.]     -.[   L T K K J J                                   ",
"                          l J J y k R U   V >.`     -.@.    -.:.; V >.:.M K R Y J J c                                   ",
"                          # J J J K R R p [ >.#.  [ >.-.; ` >.>.@.#.>.>.| T R U J l                                     ",
"                            i m J J Y R U $.>.>.] :.>.>.[ #.>.>.>.>.>.;./ R T J j                                       ",
"                              + f J J R R ! ;.>.>.>.>.>.>.>.>.>.>.>.>.;.E Y l #                                         ",
"                                  O u c K Y $.>.>.>.>.>.>.>.>.>.>.:.-.} v $                                             ",
"                                            n _ ] @.@.@.@.@.[ ` _ N                                                     ",
"                                                                                                                        ",
"                                                                                                                        ",
"                                                                                                                        ",
"                                                                                                                        ",
"                                                                                                                        ",
"                                                                                                                        ",
"                                                                                                                        ",
"                                                                                                                        ",
"                                                                                                                        ",
"                                                                                                                        ",
"                                                                                                                        ",
"                                                                                                                        ",
"                                                                                                                        "
};
