/* XPM */
static char *wall_with_snow_stone1708946324[] = {
/* columns rows colors chars-per-pixel */
"60 60 254 2 ",
"   c #591F12",
".  c #5A220C",
"X  c #5D2615",
"o  c #68280A",
"O  c #732D0D",
"+  c #752608",
"@  c #6C350C",
"#  c #76340B",
"$  c #652B15",
"%  c #6A2D15",
"&  c #6B2C1A",
"*  c #672718",
"=  c #782B16",
"-  c #6B321B",
";  c #693516",
":  c #733414",
">  c #7B3313",
",  c #73351B",
"<  c #7C3C1C",
"1  c #793719",
"2  c #773826",
"3  c #6B3322",
"4  c #6A271C",
"5  c #7A4118",
"6  c #794729",
"7  c #794737",
"8  c #795920",
"9  c #7D5546",
"0  c #774F45",
"q  c #7E6B5A",
"w  c #8B2D16",
"e  c #852B18",
"r  c #8B331A",
"t  c #843B1B",
"y  c #863719",
"u  c #93341B",
"i  c #9A341C",
"p  c #9A3718",
"a  c #8E3010",
"s  c #A4381C",
"d  c #8C3622",
"f  c #8C3C24",
"g  c #833824",
"h  c #933C25",
"j  c #9B3C24",
"k  c #943E29",
"l  c #973724",
"z  c #862E24",
"x  c #A73C27",
"c  c #AF3E2F",
"v  c #86431B",
"b  c #95431A",
"n  c #894508",
"m  c #A7461A",
"M  c #884525",
"N  c #9C432B",
"B  c #974528",
"V  c #864C3B",
"C  c #984B37",
"Z  c #935434",
"A  c #A54325",
"S  c #A4422A",
"D  c #A9492B",
"F  c #B54A2D",
"G  c #A7572C",
"H  c #B8532D",
"J  c #AD4C33",
"K  c #A84933",
"L  c #B34C34",
"P  c #B94B35",
"I  c #AB5538",
"U  c #B45234",
"Y  c #BD5434",
"T  c #BC5A34",
"R  c #BD543A",
"E  c #BD5A3B",
"W  c #B3573A",
"Q  c #BC653D",
"!  c #AC613D",
"~  c #9F6138",
"^  c #C5542D",
"/  c #C54C39",
"(  c #C25435",
")  c #C35935",
"_  c #C3553B",
"`  c #C45B3C",
"'  c #CB5D3C",
"]  c #C95737",
"[  c #CC5230",
"{  c #C4623D",
"}  c #CC653D",
"|  c #D4673D",
" . c #D6723E",
".. c #E4703F",
"X. c #8A5A4A",
"o. c #975746",
"O. c #825C52",
"+. c #935950",
"@. c #A75744",
"#. c #BB5945",
"$. c #896259",
"%. c #956A5B",
"&. c #91624A",
"*. c #A8634A",
"=. c #B96745",
"-. c #B57257",
";. c #966E64",
":. c #99776B",
">. c #96746D",
",. c #A77866",
"<. c #B87C68",
"1. c #A67C73",
"2. c #B97F7E",
"3. c #C35B43",
"4. c #CB5D43",
"5. c #C75A48",
"6. c #CC5547",
"7. c #C46243",
"8. c #CC6443",
"9. c #CE6B45",
"0. c #CC644B",
"q. c #CD6C4B",
"w. c #C56948",
"e. c #D26444",
"r. c #D36B45",
"t. c #DA6C46",
"y. c #D4654A",
"u. c #D46C4B",
"i. c #DB6D4B",
"p. c #DB6548",
"a. c #CD714C",
"s. c #CB7345",
"d. c #D4734C",
"f. c #DB744C",
"g. c #D57A4D",
"h. c #DB794E",
"j. c #D57346",
"k. c #CB6D53",
"l. c #C96951",
"z. c #D56D52",
"x. c #DA6E52",
"c. c #D36551",
"v. c #CD7353",
"b. c #CD7A54",
"n. c #CA7658",
"m. c #D57453",
"M. c #DA7453",
"N. c #D57A53",
"B. c #DB7A54",
"V. c #D5755A",
"C. c #DB765A",
"Z. c #D57B5B",
"A. c #DC7B5B",
"S. c #E4754C",
"D. c #E27454",
"F. c #E27B54",
"G. c #E2745A",
"H. c #E27B5B",
"J. c #E97951",
"K. c #E36C4E",
"L. c #CB7B62",
"P. c #D47C61",
"I. c #DB7D61",
"U. c #DD7663",
"Y. c #D17468",
"T. c #E37D62",
"R. c #E17761",
"E. c #9C8278",
"W. c #9F907B",
"Q. c #A98777",
"!. c #B78978",
"~. c #B08970",
"^. c #DC825C",
"/. c #D78359",
"(. c #D48450",
"). c #E4825C",
"_. c #E7855A",
"`. c #D48263",
"'. c #DD8463",
"]. c #DD8964",
"[. c #D98869",
"{. c #C88874",
"}. c #D78B73",
"|. c #D29174",
" X c #E28463",
".X c #E28B65",
"XX c #E48C6B",
"oX c #E78769",
"OX c #E7926C",
"+X c #E68C72",
"@X c #E79576",
"#X c #F39879",
"$X c #F58E74",
"%X c #A17E82",
"&X c #AA8A85",
"*X c #B58D84",
"=X c #AA968A",
"-X c #B3988B",
";X c #AD9C96",
":X c #B99A93",
">X c #B8A498",
",X c #BCA287",
"<X c #BCB3A5",
"1X c #B8B0AE",
"2X c #BE9FA7",
"3X c #C99B88",
"4X c #D1958B",
"5X c #E29D8A",
"6X c #C8A189",
"7X c #DAA48A",
"8X c #CAA898",
"9X c #D8A998",
"0X c #DAB19D",
"qX c #E5A488",
"wX c #E3A998",
"eX c #F2AD91",
"rX c #C7ABA6",
"tX c #D6ADA5",
"yX c #C8B5A8",
"uX c #D8B6A9",
"iX c #C7BAB6",
"pX c #D4B9B6",
"aX c #D8AFB5",
"sX c #E7B6A8",
"dX c #E4BDB6",
"fX c #ECAFA5",
"gX c #C8C3B9",
"hX c #D9C5BA",
"jX c #D3C4AF",
"kX c #E9C7B9",
"lX c #D1BEC3",
"zX c #E9BAC2",
"xX c #BFC9C1",
"cX c #CAC5C6",
"vX c #D8CAC8",
"bX c #D8D4CA",
"nX c #D7D6D4",
"mX c #CFCFD5",
"MX c #E6D8C9",
"NX c #E7DAD7",
"BX c #EDD3CB",
"VX c #D5E6DF",
"CX c #E7E0DE",
"ZX c #F1E6D5",
"AX c #DADCE7",
"SX c #E6E5E5",
"DX c #F4EBEB",
"FX c #E8F3EA",
"GX c #E9F9F9",
"HX c #F3FCFE",
"JX c #FCFDFD",
"KX c #F2F6F5",
"LX c #F6EFEE",
"PX c #D9E7EC",
/* pixels */
"jX<X>X-X-X=X>XgXNXFXBXiX>X-X=X>XiXiX1.< @ 1 bXCXAXBXpXNXbXvXAXnX<X>X8XjXcXVXFXAXpX:X*XyX8XE.%.!.yX-.# # &.Q.W.*X<XvXbXbX",
"dXsXsXkX0X6X8XtXtXdX0XsXwXwX9XwXqXqX@X~ O rXMX~.L.}.{.|.MX8XP.[.+XqXsX|.L.}.wX9XlXFXGXnXpXzXkXyXFXGX6 y 4X7X6X7X9XwXfXsX",
"f.u.p.p.p.i.z.'.F.r.d.r.r.j.i.f.B.G.a.G M bX{.g.S.N.D.q.9X}.S.F.k.q.r.f.C.f.i.f.u.v.-.q.y.i.r.f.-.cX0 m oXK.j.n.i.f.t.t.",
"m.m.Z.Z.f.Z.V.'.n.oXeXI.V./.C.v.m.F.m.D ; I m.t.m.d. XM.I.A.A.a.+X Xf.f.m.m.d.F.M.F.D.M.B.(.h._.v.Z - n 9.m.f.f.n.+X/.n.",
"f.F.N.f.B.h.j.).^.A.N.A.B.N.f./.Z.M.l.! : b l.8.k.F.B.M.j.h.Z.M.A.A.P.V.B.B.A.v.B.M.m.n.B.A.M.q.=.G @ M z.5.k.'.Z.#X].N.",
"m.m.m.x.M.D.m.Z.f.M.N.B.m.f.M.m.j.x.w.@.t {.c.` 8.g.i.G.B.N.M.f.H.g.M.A.m.m.m.A.m.M.A.N.M.K.K.m.) A # f ( ' 8.n.u.C.B.V.",
"H.v.@XeXn.m.A.m.H.m.H.A.A.M.C.u.| b.( k 5 @.E Y r.l.u.K.V.m.B.M.C.f.g.g.M.C.A.g.Z.m.M. X'.a.q.9.Y k v t E T { | i.u.u.M.",
"8.d.m.A.d.f.M.XXu.N.u.XXv.u. Xq.u.` F K 6 p { Y ^ 7.a.y.9.9.r.d.u.M.C.m.M.B.d.x.f.j.d.p.i.9.9.' A @.=XM ^ R / 3.9.q.j.0.",
"r.m.z.p.x.c.9.N.e.u.9.a.r.t.r.{ E E P j t v E _ R R ` ` e.p.u.v.I.s.r.0.oXj.i.}.r.r.8.u.8.8.T Y F f , t Y ( P T ) ] 8.q.",
"e.y.} | 4.G.y.t.G.x.i.i.8.4._ 5./ 5.U e # r 3.E ^ Y #.3.3.8.] | R.e.r.9.Z.9.i.9.y.u.u.8._ 3._ _ L r O t F 6.] Y R _ ] ] ",
"s x J K G m x F m s s i w x s s U p z = M + a F R c F P s s D F L W L / J E / 6.Y A x c D F J D !.6 : 1 k J L I J L J S ",
"V X.7 % > 2 >.W.yX-X1.;.X.X.6 o.1.;.1.NXKX;X>XMXZX6X;.*X8X3X+.2 = - 2 = & , & X 4 2 2 = * 3 2 3 +.o # @ % * o o & & 2 2 ",
"JXJXDX+.2 SXJXHXJXJXKXFXvXvXpXjXhXgXmXmXcXaXaXnXGXHXJXDXnXFXGXGXLX&.O ~.>X~.;.,.,.3X~.~.,.~.6X6X,.,.<.<.Q.>X>X8X:X6XvXCX",
"sXuXHX1.Q.JX3X:XAXaXY.H.B.B.Z.H.D.F.B.^./.F._./.3X3XL.v.V.[.}.wXpXo.6 ZX4XH..X'.@XeX`.@X+XT.T.T.T.T./.).@XeXqX@X+X|.9XhX",
"g.F.n.k <XVX].F.k.Z.^._..X#X+X[.].].+XoX`.].I.oXB.M.C.XXZ.H.c.m.@.N 1 ~.H.t.g.d.oX@XV.M.M.M.G.C.g.d.B.f.M.M.u.i.B.B.u.M.",
"R.(.=.y 9 <.S.w.A.g.h.m.Z.[.Z.f.M.N.B.t.f.g.B./.f.N./.'.m.A.B.B.w.n a W a.y.G.B.m.m.M.f.B.g.N.N.M.D.C.Z.a.h.h.A.I.+XB.m.",
"N.u.3.M o T f.Q Z.B.M.F.M.V.C.V.V.A.M.m.A.A.A.XXM.A.N.N.N.M.d.u.Q M y U 8.=.@X/.H.m.g.S.f.g.g.B.B.m.V.A.N.d.B.N.d.f.N.N.",
"r.y.J M # D ` #.`.Z.m.m.B.N.h.S.B.j. XM.N.m.A.v.i.M.B.M.f.g.j.u.W f O D 8.c.3.i.M.V.A.C.M.C.V.A.OXV.m.C.$XC.D.D.H.C.M.M.",
"r.z.I g > *.V.#.4.y.p.u.M.V.m.M.N.B.OXB.d.N.B./.H.C.M.M.i.u.u.q.x *.6 G ( Y ` t.9.q.d.v.m.M.A.^.d.A.M.B./.N.d.N.g.d.9.9.",
"' 3.W v O G m._ H ' r.r.r.9.u.j.M.u.m.i.M.M.u.i.u.q.u.m.c.0.q.w.J B # D _ R E ` q.u.q.#XeX9.B.a.f.M.r.M.u.d.9.9.r.r.u.r.",
"R P D t > B e.( n.=.4.0.e.y.i.| u.u.u.d.r.8.u.r.7.j.A.G.0.E Q w.P y O K _ F Y E ) ( i.l.N.u.r.r.9.0.u.y.q.q.A.M.m.u.8.` ",
"#.3.i y > B u.( }.l.l.9.3._ 8.e.8.u.} 8.B.i.f.8.i.4.( / ` ] ( H l > # N #.8.( 5.] ( _ 3.7.R 4.0.8.| r.r.p.u.G.0.` _ ( Y ",
"a e + + o M N i j x p i u l j x x J J J 3.J K A w w + = e u l u 1 t O Z K h B k N N N N N I I K B S A x i w w w e e r r ",
"9 >.>.1.iXHXiX:XNXvX>X&XrXuX*XO.V - * * X X *   7 7 0 O.;.;.X.X.2 : < 3 3 2 Z 7 , $ X o o V X $ $ 3 & X :.:XrX<X-X&X;.O.",
"9XsXtXtXpXtX6X{.rXSXHXSXhXpXNXFXHXhXZ t 5 @ M *.lXiXpXBXNXLXLXFXSXCXcXcXmXPXHXHXnXxX1X>XiXgX>Xo.B 5 o 0XJXAXHXJXZXkXuX9X",
"A.f.i.M.m.q.B.F.B./.Z.A._.g.(.`.[.OX@XI @ B )..X#X X.X.XOX.X@X@X@XqX@X|.@X7XwXqXqXsXsX5XqXqX@XXXoXZ 6 GXyX=.3X4Xk.z.m.B.",
"`.N.B.h.B.B.V.N.C.M.V.m.h.F.D.G.F.g.d.I = W  XZ.'.'./..X X X X XF.F.B.F.^.B.B.f.j.T.C.g.B.N.M._.v.K < >X`...9.x.A.A.A.B.",
"Z.A.h.f.f.A.M.V.C.V.'.`.V.C.[.sXZ./.9.I o ~ m.q.f.g.B.V.N.M.C.f.C.M.V.'./.m.V.C.g.A.g.j.h.V.N.N.=.J O b k.-.S.f.B.M.m.f.",
"C.i.d.B.N.m.A.B.h.B./././.C.i.'.f.g.0.I 1 B  .` u.C.Z.A.m.A.N.V.M.V.N. X^.V.m.C.Z.A.C.h.B.M.C.m.s.b @ b k.{.i.g.M.h.B.B.",
"x.T.V.n.eXP.P.A.m.C.D.m.M.A.b.v.u.u.E k t W E n.0.u.u.M.A.B.N.B.B.B.B.].'.N.h.B.N.V.M.f.f.V.C.e.#.B @ B 3.7.3.d.m.M.m.M.",
"F.9.N.N.].[.OXN.B.B.m.B.A.d.u.i.z.u.J h # N #.fXA.a.).q..Xq.]..Xd.N.N.A.B.N.B.N.d.'.A.f.u.b.V.| L.B = B P ( #.e.9.a.u.j.",
"9.i.f.r.u.M.u.z.y.N.s.9.p.y.j.r.| ) A f 1 B T 7.#.0.u.z.u.k.V.oXu.f.z.x.z.m.M.u.i.].k.y.r./.q.] F B - n ^ 5.H ` e.r.u.u.",
"z.u.t.u.9.y.j.e.u.y.e.d.u.e.e.{ ( 3.S > y u R R #.E ( 4.0.c.z.t.p.u.j.| t.} 9.r.} 9.j.y.8.7.Y E P r @ v L / _ W T ] 0.0.",
"Q ( 7.` p.} y.v.A.8.e.4.R v.3.^ _ W l O # t H ( / ] ( Y ( ] } { n.n.l.z.y.i.M.z.x.u.0.3.3.' ` ) S > M t W 4._ E ( H ) ( ",
"s x K L B B l z C 2 e e 4 {.V d k z e * 2 1 B J I N N J D x S x J #.J I S x s s p s i p a i i i a o M o w i i x S j S j ",
"X.9 & * - . X & . $ . . * * X X 2 * * O > : o $ o < 2 - 2 o.&.+.V Z , 3 :.&X%X:XiXiXiXrX;X1.:.%.;.;.E.Q.>X-X;.+.V 7 7 X.",
"nXkX-.# @ ~.yX!.<.,.<.~.*X!.<.!.8X6X3X~.-.,.Q.6XrXdX8X:XnXHXHXHXJX%.o Z 0X9X9X9XfXkXkXBXBXNXCXNXvXpXvXDXLXLXLXNXbXvXvXNX",
"U.I.b.B 6 kX{.A.A.'.F. XA.OXXXC./.^..X^..X+XoX].[.].'.}.3X8X0X9XmX8Xo b.OX/.^.H.F._._.).H.A.H.H./.^.)./.].]./.^..X.X^.^.",
"/.h.=.M 6 <.A.j.A.u.H.M.H.'.A.C.f.f.A.m.B.M.m.m.N.f.S.h.k.Z.oXz.*.B > =..X/.[.+X].^..X].[.XX+X@XXX).XX^.'..X.X'.'..XA.N.",
"C.C.7.v # R B.9.A. XN.a.N.M.m.N.A.V.N.M.D.h.A.Z.m.A.V.M.B.N.m.A.=.M O #.d.} N.`.].N.V.C.H. X].XX].'.'. X X'.A. X[.XXA.m.",
"d.q.W B O I u.{ `.`.A.B.g.h.B.f.M.M.d.B.m.M.M.A.A.XXN.A.V.B.V.j.' v < =.3.0.u.M.N.N..X^.d.N.^.).`.Z.N.m.m.m.F.f.B.m.B.B.",
"9.u.L r # U _ 7.u.i.u.f.A.C.V.C.m.A.XXN.A.A.XX/.V.B.d.M.M.j.i.y.U M 2 a.T ` 9.z.A.V.T.U.M.A.M.m.M.F.D.M.#X`.N.m.H.B.z.x.",
"u.4.D M : J / 3.' r.j.9.u.v.m.Z.m.A.XXB.V.V.A.A.B.N.m.u.u.u.r.` S f = *.m.R 3.M.A.m.u.9.j.B.m.B.g.B.f.B.Z.b.N.B.j.d.r.9.",
"{ _ m v 5 A ( I R ` z.T.M.i.e.| i.u.8.M.i.m.u.a.9.u.u.H.z.d.` Y F B 1 A ` P ( ( 8.u.u.9.u.M.r.j.d.9.9.f.r.u.p.8.9.i.r.r.",
"H 3.c w > D ' R E W 3.3.3.e.i.r.t.r.r.f.r.| r.9.i.e.r.M.4.` Y ( x 1 : B #.n.W _ R 3.4.9.C.A.q.u.c.x.u.8.y.p.V.m.z.8.8.` ",
"_ W l 1 ; b 0.M.Y ] ] _ ` ` ` ` 4.' 8.e.r.e.y.p.8.} ` ` ` 3.` Y l t > r 5.k.W 4.( ( R R ` ` ` 3.8.} 9.} e.p.x.5.` L P ( ",
"e = O + o o r l l u w i l u d j h f k j l J k k i u w e z = e w + o + O = e p a u u u u w w r r y a u h w e 2 = = d e = ",
"1X1X8X%.1.=X;X1XlXrX&X$.X.,.,.9 7 X.,.7 X - X X 2 X.O.&X=X1.1.-XiX-XE.gXiX1.$.q O.9 9 ;.>.&X:X=XE.7 X 3 =X1XiXiX&XjXrX;X",
"8XfX4XkXkXfX4X7XhXvXnXHXHXHXNXbXzXbXHXAX- # I <.BXNXvXuXsXsXBXSXkX3X3X9X0XuXZXwXwX7XwXsXkXZXJXPXZXHXo.~.FX4X4X0X}.0XFXiX",
"D.p.f.u.9.j.D.t.S.m.P.{.{.|.A.h.B.m.3XPX7 Z .X_.B.h.u.j.d.M.j.q.j.t.J.D.M.q.oXD.H.H.).h.N.Z.`.P.-.bX2XvX{.i.H.N.S.d.Z.V.",
"A.A.C.A.XXV.v.A.D.f.M.h.M.M.M.M.h.(.k.@.# G _.a.C.M.m.H.H.V.m.A.m.A.M.m.A.Z.M.M.m.C.C.B.B.F.h._.z.N W.*XA.g.y.J.d.^.V.H.",
"g.f.d.A..X/.XXb.B.N.A.N.Z.N.A.B.A.N.v.n.# G 0.z.k./.Z.'.oXV.@XqXN.f.f.f.g.N.h.F.g.g.N.N.'..Xm.m.5.A 8 j t.=.L.A.m.H.G.M.",
"A.N.m.G.c.`.#X'.m.m.M.M.M.g.A.V.n.D.w.@.e A v.Q r.B.B.B.G.u.'.Z.N.V.A.A.k.N.V.B.F.f.f.A.A.A.d.g.0.~ @ M ' 8.w.d.B.f.C.d.",
"M.V.B.G.C.Z.v.A.P.Z.B.M.D.C.I.P.p.r.H N ; B m.a.{ p.x.m.m.'.A.G.f.B.m.M.M.F.d.C.+XP.Z.P.V.z.u.u.W C % B 3.Y | r.z.z.M.N.",
"m.u.A.N.N. XN.N.t.h.m.N.m.g.S.t.t.} G x 1 D T Y 3.e.i.i.q.N.z.D.g.A.m.V.N.f.M.I.I.v.a.j.i.9.r.} F b , p #.P H 9.q.i.9.s.",
"y.i.r.9.i.a.r.i.z.z.y.9.r.e.m.0.5._ W x @ b E #.U E 9.| t.r.9.s.t.r.u.f.i.t.M.u.u.i.t.e.r.} 0.R F B , y ^ Q T 6.q.y.t.u.",
"9.9.9.9.r.9.9.q.u.p.e.D.u.r.8.) ` E R y = h Y ^ 7.7.E ` ` 8.r.u.9.q.A.w.B.f.8.9.r.9.B.9.8.` T ) P t : a I }.P.Y Y _ ` ` ",
"Y _ ` ' ' 8.8.8.q.qX0.3.5.P _ P k.#.K y > t I ` 5.5.3._ _ _ _ ` 3.R.$X0.5.y.p.y.y.0.z.5.3._ P / x = # r c #.#./ ( ( R _ ",
"h h k h h h h h g @.g 1 d > 1 d f 1 = O , : d l B k h B k j k B N B B f B B d f d r h e f d d f t o < > y g f j k M f k ",
"- - - % $ $ $ $ $ . & & % 3 * - * & : - 5 , % & $ & & , - - 3 3 & $ - - % % $ - & $ 3 $ - - & & $ , 5 @ ; - $ ; - - ; $ "
};
